<?xml version="1.0" standalone="no"?>
<!DOCTYPE svg PUBLIC "-//W3C//DTD SVG 1.1//EN" "http://www.w3.org/Graphics/SVG/1.1/DTD/svg11.dtd" >
<svg xmlns="http://www.w3.org/2000/svg" xmlns:xlink="http://www.w3.org/1999/xlink" version="1.1">
<metadata></metadata>
<defs>
<font id="jelleeroman" horiz-adv-x="1468" >
<font-face units-per-em="2048" ascent="1593" descent="-455" />
<missing-glyph horiz-adv-x="512" />
<glyph horiz-adv-x="0" />
<glyph unicode="&#xd;" horiz-adv-x="681" />
<glyph unicode=" "  horiz-adv-x="512" />
<glyph unicode="&#x09;" horiz-adv-x="512" />
<glyph unicode="&#xa0;" horiz-adv-x="512" />
<glyph unicode="!" horiz-adv-x="618" d="M102 178q0 76 52.5 128t126.5 52h57q74 0 126 -52t52 -126q0 -76 -52 -128t-126 -52h-57q-74 0 -126.5 52t-52.5 126zM133 1044v390q0 72 52.5 124t123.5 52q72 0 124 -52.5t52 -123.5v-390l-41 -407q-4 -51 -44 -87t-91 -36q-53 0 -93 36t-44 89z" />
<glyph unicode="&#x22;" horiz-adv-x="1015" d="M90 1395q0 68 49 118t117 50t117 -50.5t49 -117.5q0 -14 -2 -23l-70 -475q-4 -35 -31.5 -57.5t-62.5 -22.5t-62.5 22.5t-31.5 57.5l-70 475q-2 8 -2 23zM594 1395q0 68 49 118t117 50t117 -50.5t49 -117.5q0 -14 -2 -23l-70 -475q-4 -35 -31.5 -57.5t-62.5 -22.5 t-62.5 22.5t-31.5 57.5l-70 475q-2 8 -2 23z" />
<glyph unicode="#" horiz-adv-x="1286" d="M43 465q0 41 29.5 70.5t70.5 29.5h148l47 295h-113q-41 0 -70.5 30t-29.5 73q0 41 29.5 70.5t70.5 29.5h148l39 246q6 37 35.5 63.5t68.5 26.5q45 0 77 -31t32 -76l-2 -16l-35 -213h235l39 246q6 37 36 63.5t69 26.5q45 0 76.5 -31t31.5 -76l-2 -16l-35 -213h105 q41 0 70.5 -29.5t29.5 -72.5q0 -41 -29.5 -71t-70.5 -30h-139l-48 -295h105q41 0 70.5 -29.5t29.5 -72.5q0 -41 -29.5 -71t-70.5 -30h-137l-47 -290q-6 -37 -36 -62.5t-69 -25.5q-45 0 -75.5 30.5t-30.5 75.5l2 16l41 256h-236l-47 -290q-6 -37 -36 -62.5t-68 -25.5 q-46 0 -76.5 30.5t-30.5 75.5l2 16l41 256h-115q-41 0 -70.5 30t-29.5 73zM506 565h235l47 295h-235z" />
<glyph unicode="$" horiz-adv-x="1388" d="M86 1110q0 131 66.5 234.5t186.5 166t273 72.5v133q0 29 21.5 50.5t50.5 21.5t50.5 -21.5t21.5 -50.5v-135q283 -20 422 -188q37 -45 36 -111q0 -70 -50 -121t-122 -51q-45 0 -84.5 23.5t-62.5 62.5q-47 88 -139 113v-355l118 -22q215 -41 329 -140.5t114 -304.5 q0 -137 -63.5 -250.5t-189.5 -186.5t-308 -83v-203q0 -29 -21.5 -50t-50.5 -21t-50.5 21.5t-21.5 49.5v203q-340 20 -485 217q-31 43 -31 109q0 74 52.5 126t123.5 52q51 0 93.5 -26.5t64.5 -69.5q27 -53 72 -81t110 -38v373l-123 24q-207 43 -305 150.5t-98 306.5z M440 1157q0 -80 38 -121t120 -51l14 -2v334q-88 -10 -130 -52t-42 -108zM756 256q192 26 192 176q0 68 -38 107t-124 55l-30 6v-344z" />
<glyph unicode="%" horiz-adv-x="1646" d="M66 1196q0 119 45 206t123.5 133t175.5 46q158 0 244.5 -97.5t86.5 -287.5q0 -184 -94 -284.5t-246 -100.5q-157 0 -246 99.5t-89 285.5zM246 55q0 33 16 56l944 1441q12 20 35 32.5t49 12.5q41 0 70 -29.5t29 -70.5q0 -31 -17 -53l-942 -1444q-29 -45 -84 -45 q-41 0 -70.5 29.5t-29.5 70.5zM307 1196q0 -113 23.5 -162t72.5 -49q46 0 69.5 47t23.5 164q0 113 -23.5 162t-71.5 49q-47 0 -70.5 -47t-23.5 -164zM903 356q0 119 45 206t124 133t175 46q158 0 245 -97t87 -288q0 -184 -94 -284.5t-246 -100.5q-158 0 -247 99.5t-89 285.5 zM1145 356q0 -113 23.5 -162t72.5 -49q45 0 68.5 47.5t23.5 163.5q0 113 -23.5 162t-70.5 49t-70.5 -47t-23.5 -164z" />
<glyph unicode="&#x26;" horiz-adv-x="1507" d="M66 432q0 147 75.5 244.5t204.5 173.5q-76 80 -114.5 161t-38.5 181q0 188 133 297.5t360 109.5q154 0 255 -51t149.5 -134t48.5 -183q0 -119 -72 -215t-223 -185l215 -204q10 53 11 66.5t5 33.5q10 66 53 103.5t103 37.5q63 0 110.5 -42t47.5 -117q0 -37 -25 -142.5 t-57 -175.5l82 -80q53 -53 53 -123t-50.5 -119t-119.5 -49q-70 0 -117 48l-53 51q-190 -154 -461 -154q-178 0 -308 59.5t-198.5 165t-68.5 242.5zM422 461q0 -92 63.5 -148.5t171.5 -56.5q126 0 228 72l-346 331q-61 -47 -89 -94t-28 -104zM526 1212q0 -59 30 -100t97 -100 q84 55 125 105t41 106q0 57 -40 97t-107 40q-66 0 -106 -39t-40 -109z" />
<glyph unicode="'" horiz-adv-x="512" d="M90 1395q0 68 49 118t117 50t117 -50.5t49 -117.5q0 -14 -2 -23l-70 -475q-4 -35 -31.5 -57.5t-62.5 -22.5t-62.5 22.5t-31.5 57.5l-70 475q-2 8 -2 23z" />
<glyph unicode="(" horiz-adv-x="598" d="M53 649q0 231 54.5 416.5t124 305.5t159.5 241q12 18 32.5 28.5t45.5 10.5q41 0 69.5 -29t28.5 -70q0 -18 -10 -43q-205 -395 -205 -860q0 -270 58.5 -478t146.5 -378q10 -25 10 -45q0 -41 -28.5 -69.5t-69.5 -28.5q-45 0 -78 39q-88 117 -158.5 238.5t-125 307 t-54.5 414.5z" />
<glyph unicode=")" horiz-adv-x="598" d="M31 -254q0 20 10 45q88 174 146.5 382t58.5 478q0 465 -205 856q-10 25 -10 45q0 41 28.5 70t69.5 29q25 0 45.5 -10.5t32.5 -28.5q88 -117 158.5 -239t125 -307t54.5 -415q0 -231 -55.5 -415.5t-122 -299t-160.5 -245.5q-12 -18 -33.5 -29.5t-46.5 -11.5 q-39 0 -67.5 27.5t-28.5 68.5z" />
<glyph unicode="*" horiz-adv-x="974" d="M57 1227q0 16 6 30l23 62q18 49 55 49q12 0 37 -10l219 -107l9 4l-25 263q-2 37 16.5 56t53.5 19h69q35 0 52.5 -19.5t15.5 -55.5l-25 -265l4 -2l230 111q16 8 34 8q45 0 60 -49l20 -66q4 -10 4 -28q0 -47 -51 -62l-237 -67v-6l180 -197q23 -27 22 -47q0 -31 -32 -53 l-66 -45q-22 -17 -45 -17q-33 0 -55 37l-142 229h-8l-141 -225q-20 -37 -55 -37q-20 0 -43 17l-68 47q-33 23 -33 51q0 23 23 49l182 197l-2 4l-233 65q-53 16 -54 60z" />
<glyph unicode="+" horiz-adv-x="1114" d="M59 670q0 57 41 98t99 41h211v215q0 59 43 103t104 44t104.5 -44t43.5 -103v-215h210q57 0 98.5 -41t41.5 -98t-41 -98.5t-99 -41.5h-210v-227q0 -59 -43.5 -103t-104.5 -44t-104 44t-43 103v227h-211q-57 0 -98.5 41t-41.5 99z" />
<glyph unicode="," horiz-adv-x="604" d="M98 -307q0 45 35 69q76 51 108.5 106.5t37.5 131.5q-74 0 -126.5 52t-52.5 128t55.5 127t143.5 51q117 0 166 -67.5t49 -173.5q0 -37 -2 -56q-14 -147 -78.5 -253.5t-212.5 -186.5q-16 -10 -41 -10q-33 0 -57.5 23.5t-24.5 58.5z" />
<glyph unicode="-" horiz-adv-x="884" d="M70 618q0 63 44 107.5t107 44.5h441q63 0 107 -44t44 -108q0 -63 -44 -108t-107 -45h-441q-63 0 -107 45t-44 108z" />
<glyph unicode="." horiz-adv-x="636" d="M111 178q0 76 52 128t126 52h57q74 0 126 -52t52 -128q0 -74 -52 -126t-126 -52h-57q-74 0 -126 52t-52 126z" />
<glyph unicode="/" horiz-adv-x="866" d="M-8 -231q0 12 8 41l647 1765q12 35 42 55.5t69 20.5q49 0 82.5 -35t33.5 -82q0 -18 -6 -41l-647 -1765q-12 -35 -43 -56.5t-67 -21.5q-50 0 -84.5 34.5t-34.5 84.5z" />
<glyph unicode="0" horiz-adv-x="1417" d="M63 770q0 395 170 600t478 205q643 0 643 -805q0 -401 -168 -603t-479 -202q-318 0 -481 196.5t-163 608.5zM461 770q0 -276 60.5 -396t187.5 -120q122 0 184.5 119t62.5 397q0 274 -62.5 395t-184.5 121q-123 0 -185.5 -118.5t-62.5 -397.5z" />
<glyph unicode="1" horiz-adv-x="884" d="M14 1153q0 39 20.5 74t51.5 55l399 252q47 29 97 29q76 0 128 -53.5t52 -127.5v-1212q0 -76 -54.5 -131t-132.5 -55q-75 0 -130.5 55t-55.5 131v942l-141 -88q-35 -23 -80 -23q-63 0 -108.5 44.5t-45.5 107.5z" />
<glyph unicode="2" horiz-adv-x="1247" d="M39 180q0 39 16.5 75t44.5 60q29 25 57.5 50.5t57.5 50.5q260 227 369.5 330.5t165 187.5t55.5 168q0 88 -51.5 135t-143.5 47q-66 0 -105.5 -24.5t-59 -61.5t-39.5 -100q-25 -78 -72 -104.5t-98 -26.5q-61 0 -113.5 33.5t-52.5 127.5q0 82 54 185.5t182 182.5t337 79 q244 0 386 -122t142 -335q0 -133 -58 -243.5t-156.5 -209t-292.5 -268.5l-93 -80v-6h473q66 0 111 -45t45 -110q0 -63 -45 -109.5t-111 -46.5h-825q-74 0 -127 52t-53 128z" />
<glyph unicode="3" horiz-adv-x="1253" d="M35 330q0 74 53 127t129 53q55 0 100 -32t66 -81q61 -143 219 -143q102 0 162.5 56.5t60.5 144.5q0 86 -51 135t-129 49q-18 0 -29 -2q-59 -6 -109 29.5t-71 95.5q-6 23 -6 41q0 53 38 90t89 37h35q88 0 143.5 43t55.5 135q0 84 -53.5 131t-135.5 47q-141 0 -201 -127 q-20 -45 -62 -74.5t-93 -29.5q-72 0 -123 50t-51 122q0 43 24 88q72 123 205 192.5t322 69.5q164 0 284.5 -55.5t185 -149.5t64.5 -209q0 -131 -68.5 -217t-187.5 -127v-6q139 -33 219 -133t80 -244q0 -131 -73.5 -238.5t-209 -170t-313.5 -62.5q-198 0 -337.5 73 t-211.5 200q-20 35 -20 92z" />
<glyph unicode="4" horiz-adv-x="1320" d="M16 442q0 39 19 70l528 907q37 66 104.5 105t145.5 39t144.5 -39t105.5 -105.5t39 -144.5v-670h55q61 0 105.5 -44t44.5 -105q0 -63 -44 -107.5t-106 -44.5h-55v-141q0 -74 -52.5 -126t-125.5 -52q-76 0 -128.5 52t-52.5 126v141h-587q-57 0 -98.5 41t-41.5 98zM403 604 h347v639h-11q-20 -53 -34 -84q-49 -115 -103 -205z" />
<glyph unicode="5" horiz-adv-x="1222" d="M47 289q0 72 51.5 123t122.5 51q51 0 91 -25.5t63 -68.5q33 -63 86 -90t114 -27q106 0 167 65.5t61 182.5q0 106 -61.5 166.5t-172.5 60.5q-82 0 -141 -41q-51 -37 -127 -37q-90 0 -154.5 64.5t-64.5 154.5q0 18 4 43l92 480q31 156 189 155h589q66 0 113 -47t47 -115 q0 -66 -47 -112.5t-113 -46.5h-497l-60 -320h4q59 51 126 72.5t157 21.5q221 0 354.5 -129t133.5 -364q0 -160 -75 -282t-208 -188.5t-305 -66.5q-369 0 -512 221q-27 41 -27 99z" />
<glyph unicode="6" horiz-adv-x="1333" d="M61 692q0 295 86 493.5t237 294t345 95.5q285 0 432 -182q35 -45 35 -107q0 -70 -49 -118t-119 -48q-45 0 -82 21.5t-59 56.5q-31 49 -73 71.5t-99 22.5q-113 0 -188.5 -111.5t-90.5 -318.5h4q63 72 145.5 108t209.5 36q137 0 249.5 -53.5t179 -164t66.5 -276.5 q0 -150 -72.5 -273.5t-209 -196.5t-316.5 -73q-295 0 -463 180.5t-168 542.5zM465 492q0 -106 61.5 -171t167.5 -65q105 0 167.5 65.5t62.5 170.5q0 104 -62.5 170.5t-167.5 66.5q-104 0 -166.5 -66.5t-62.5 -170.5z" />
<glyph unicode="7" horiz-adv-x="1157" d="M14 1384q0 68 47.5 115t112.5 47h787q72 0 124 -52t52 -126q0 -37 -17 -74l-559 -1206q-23 -47 -66.5 -75.5t-97.5 -28.5q-73 0 -125.5 52t-52.5 126q0 41 17 78l469 985h-531q-66 0 -113 47t-47 112z" />
<glyph unicode="8" horiz-adv-x="1327" d="M51 434q0 135 77 233.5t194 137.5v6q-221 96 -222 342q0 123 68 221.5t196 154.5t300 56t300 -55t195.5 -152.5t67.5 -220.5q0 -125 -60.5 -213t-162.5 -133v-6q119 -39 195.5 -136.5t76.5 -230.5q0 -143 -73 -249.5t-211 -165t-326 -58.5q-191 0 -329 57.5t-212 163 t-74 248.5zM430 457q0 -100 65.5 -157.5t168.5 -57.5q102 0 167.5 57t65.5 158q0 102 -65.5 159.5t-167.5 57.5t-168 -57.5t-66 -159.5zM453 1128q0 -88 60 -138t151 -50q90 0 150 50t60 138t-60 138.5t-150 50.5t-150.5 -50t-60.5 -139z" />
<glyph unicode="9" horiz-adv-x="1335" d="M45 1044q0 150 69.5 272t206 192.5t324.5 70.5q193 0 334 -85t218 -252t77 -406q0 -436 -179.5 -651.5t-488.5 -215.5q-294 0 -444 162q-41 45 -41 117q0 70 49 119t119 49q43 0 80 -18.5t59 -53.5q61 -88 172 -88q129 0 201.5 98.5t77.5 333.5h-7q-61 -66 -133.5 -101.5 t-189.5 -35.5q-143 0 -258 59.5t-180.5 171t-65.5 262.5zM418 1053q0 -106 62.5 -172t164.5 -66q103 0 165 65.5t62 172.5q0 106 -60 171.5t-167 65.5q-102 0 -164.5 -65.5t-62.5 -171.5z" />
<glyph unicode=":" horiz-adv-x="604" d="M94 178q0 76 52.5 128t125.5 52h58q74 0 126 -52t52 -128q0 -74 -52.5 -126t-125.5 -52h-58q-73 0 -125.5 52t-52.5 126zM94 938q0 74 52.5 126t125.5 52h58q74 0 126 -52t52 -128q0 -74 -52.5 -126t-125.5 -52h-58q-73 0 -125.5 52t-52.5 128z" />
<glyph unicode=";" horiz-adv-x="591" d="M90 -326q0 41 35 70q78 55 110.5 113.5t36.5 142.5q-74 0 -126 52t-52 128q0 74 52.5 126t125.5 52q123 0 180.5 -71.5t57.5 -180.5q0 -25 -2 -36q-14 -160 -77.5 -272.5t-209.5 -198.5q-18 -12 -45 -13q-35 0 -60.5 26t-25.5 62zM94 938q0 74 52.5 126t125.5 52h58 q74 0 126 -52t52 -128q0 -74 -52.5 -126t-125.5 -52h-58q-73 0 -125.5 52t-52.5 128z" />
<glyph unicode="&#x3c;" horiz-adv-x="1155" d="M66 639q0 49 27.5 89t70.5 58l729 308q18 8 47 8q51 0 86 -35t35 -86q0 -37 -21.5 -67.5t-54.5 -45.5l-573 -227l569 -225q35 -14 57.5 -46t22.5 -71q0 -51 -37 -88t-88 -37q-24 0 -49 10l-723 305q-43 18 -70.5 59.5t-27.5 90.5z" />
<glyph unicode="=" horiz-adv-x="1255" d="M129 449q0 51 36 86.5t85 35.5h754q49 0 84.5 -35.5t35.5 -84.5q0 -51 -35.5 -87t-84.5 -36h-754q-49 0 -85 35.5t-36 85.5zM129 889q0 49 36 85t85 36h754q49 0 84.5 -36t35.5 -85q0 -51 -35.5 -87t-84.5 -36h-754q-49 0 -85 36t-36 87z" />
<glyph unicode="&#x3e;" horiz-adv-x="1155" d="M94 297q0 37 21.5 67.5t54.5 45.5l573 227l-569 225q-35 14 -57.5 46t-22.5 71q0 51 37 88t88 37q25 0 49 -10l723 -306q43 -18 71 -58t28 -89t-28 -90t-71 -59l-729 -308q-18 -8 -47 -8q-51 0 -86 35t-35 86z" />
<glyph unicode="?" horiz-adv-x="1191" d="M39 1264q0 47 27 94q70 115 197.5 182.5t314.5 67.5q266 0 413.5 -117t147.5 -324q0 -102 -29 -171.5t-80 -120t-141 -111.5l-37 -25q-84 -57 -107.5 -84.5t-25.5 -83.5q-23 -35 -68 -52t-96 -17q-57 0 -102 30.5t-66 79.5q-2 76 18.5 126t60.5 88t118 94 q102 72 140 116.5t38 112.5q0 72 -49 116t-140 44q-143 0 -198 -119q-23 -47 -65 -75t-95 -28q-72 0 -124 52.5t-52 124.5zM346 180q0 74 52.5 126t125.5 52h58q74 0 126 -52t52 -128q0 -74 -52.5 -126t-125.5 -52h-58q-73 0 -125.5 52t-52.5 128z" />
<glyph unicode="@" horiz-adv-x="2109" d="M78 524q0 301 135 536.5t371.5 365.5t529.5 130q289 0 498 -114.5t317.5 -308t108.5 -424.5q0 -203 -78 -351.5t-208 -226.5t-286 -78q-119 0 -191.5 41t-107.5 133h-8q-66 -82 -135.5 -115.5t-169.5 -33.5q-147 0 -243.5 104.5t-96.5 292.5q0 182 63.5 323.5t176 220.5 t254.5 79q170 0 243 -131h9q14 51 57 83.5t96 32.5q68 0 114 -46t46 -111q0 -20 -2 -31l-90 -489q-6 -31 -6 -58q0 -49 25.5 -74.5t84.5 -25.5q72 0 135.5 59.5t102.5 162.5t39 226q0 211 -90.5 373t-263.5 252t-410 90q-246 0 -435.5 -115.5t-294 -314.5t-104.5 -440 q0 -252 101.5 -433.5t279.5 -275.5t406 -94q168 0 301 34.5t254 110.5q16 10 36 11q29 0 49.5 -19.5t20.5 -48.5q0 -37 -31 -57q-131 -88 -284.5 -134.5t-368.5 -46.5q-276 0 -492.5 119t-337 332t-120.5 485zM850 475q0 -86 36 -128t97 -42q104 0 164.5 117t60.5 268 q0 80 -32.5 127t-100.5 47q-61 0 -112.5 -52t-82 -142t-30.5 -195z" />
<glyph unicode="A" d="M31 162q0 27 10 57l389 1127q33 96 117 156.5t190 60.5q104 0 188.5 -60.5t116.5 -156.5l385 -1115q10 -35 11 -61q0 -76 -54.5 -131t-132.5 -55q-61 0 -110 35.5t-68 93.5l-67 215h-557l-68 -219q-16 -55 -63.5 -90t-108.5 -35q-74 0 -126 52t-52 126zM545 631h364 l-98 313q-31 98 -51 180l-21 80h-24l-21 -80q-20 -82 -51 -180z" />
<glyph unicode="B" horiz-adv-x="1454" d="M129 174v1198q0 84 45 129t129 45h549q240 0 369 -106.5t129 -280.5q0 -123 -66.5 -211t-206.5 -131v-6q143 -27 232.5 -117t89.5 -231q0 -139 -66.5 -243.5t-192.5 -162t-298 -57.5h-539q-84 0 -129 45t-45 129zM514 281h274q231 0 232 186q0 90 -61.5 135t-170.5 45 h-274v-366zM514 928h256q111 0 162 43t51 127q0 82 -50 125t-163 43h-256v-338z" />
<glyph unicode="C" horiz-adv-x="1488" d="M61 760q0 242 93.5 427t264.5 288.5t400 103.5q188 0 331.5 -60.5t233.5 -170.5q37 -43 37 -121t-54 -132.5t-132 -54.5q-49 0 -93 25t-69 65q-82 139 -254 140q-156 0 -250 -122t-94 -370q0 -254 96.5 -379t247.5 -125q180 0 266 156q25 45 70 72.5t98 27.5 q78 0 134.5 -56t56.5 -136q0 -61 -37 -115q-188 -258 -588 -258q-368 0 -563 210t-195 585z" />
<glyph unicode="D" horiz-adv-x="1558" d="M129 174v1198q0 84 45 129t129 45h356q373 0 606.5 -186t233.5 -584q0 -381 -222 -578.5t-618 -197.5h-356q-84 0 -129 45t-45 129zM518 311h141q207 0 320 105.5t113 365.5q0 242 -111 348.5t-322 106.5h-141v-926z" />
<glyph unicode="E" horiz-adv-x="1290" d="M129 174v1198q0 84 45 129t129 45h754q66 0 111.5 -47t45.5 -113q0 -63 -46 -110t-111 -47h-539v-301h445q63 0 108 -45t45 -109q0 -63 -45 -109.5t-108 -46.5h-445v-301h580q66 0 111.5 -46t45.5 -111q0 -66 -46 -113t-111 -47h-795q-84 0 -129 45t-45 129z" />
<glyph unicode="F" horiz-adv-x="1198" d="M129 180v1192q0 84 45 129t129 45h713q66 0 112 -46t46 -111q0 -66 -46.5 -113t-111.5 -47h-494v-357h400q63 0 108 -45t45 -108t-45 -109.5t-108 -46.5h-400v-383q0 -82 -57 -139t-139 -57t-139.5 57t-57.5 139z" />
<glyph unicode="G" horiz-adv-x="1572" d="M61 754q0 254 96.5 440t269.5 285.5t398 99.5q182 0 318.5 -60.5t224.5 -166.5q39 -49 39 -117q0 -74 -53.5 -127t-126.5 -53q-49 0 -91 25.5t-67 66.5q-39 68 -97.5 101.5t-146.5 33.5q-158 0 -258 -125t-100 -379q0 -256 100.5 -383t253.5 -127q152 0 235 88t83 213v17 h-213q-55 0 -95 40t-40 97q0 55 39.5 95t95.5 40h397q84 0 129 -45t45 -129v-541q0 -66 -47 -112.5t-113 -46.5q-57 0 -102 36.5t-55 92.5l-11 55h-10q-70 -102 -166 -151.5t-252 -49.5q-200 0 -354 92.5t-240 269.5t-86 425z" />
<glyph unicode="H" horiz-adv-x="1605" d="M127 180v1186q0 82 57.5 139.5t139.5 57.5t139 -57.5t57 -139.5v-416h565v416q0 82 57.5 139.5t139.5 57.5t139.5 -57.5t57.5 -139.5v-1186q0 -82 -57.5 -139t-139.5 -57t-139.5 57t-57.5 139v451h-565v-451q0 -82 -57 -139t-139 -57t-139.5 57t-57.5 139z" />
<glyph unicode="I" horiz-adv-x="647" d="M127 180v1186q0 82 57.5 139.5t139.5 57.5t139 -57.5t57 -139.5v-1186q0 -82 -57 -139t-139 -57t-139.5 57t-57.5 139z" />
<glyph unicode="J" horiz-adv-x="1212" d="M76 400.5q53 52.5 133 52.5q94 0 156 -95q25 -41 59.5 -63.5t107.5 -22.5q88 0 131.5 47.5t43.5 157.5v889q0 82 57 139.5t139 57.5t139.5 -57.5t57.5 -139.5v-870q0 -238 -133 -384.5t-420 -146.5q-164 0 -294 49t-194 140q-36 52 -36 109q0 85 53 137.5z" />
<glyph unicode="K" horiz-adv-x="1413" d="M129 176v1194q0 80 56.5 136.5t136.5 56.5q82 0 138 -56.5t56 -136.5v-502l492 631q23 29 57.5 46.5t71.5 17.5q68 0 115.5 -48.5t47.5 -115.5q0 -59 -36 -103l-314 -389l400 -624q30 -49 30 -102q0 -85 -56 -141t-136 -56q-51 0 -95 24.5t-71 65.5l-336 536l-170 -209 v-225q0 -80 -56.5 -136t-137.5 -56q-80 0 -136.5 56t-56.5 136z" />
<glyph unicode="L" horiz-adv-x="1245" d="M129 174v1192q0 82 57.5 139.5t139.5 57.5t139 -57.5t57 -139.5v-1044h541q66 0 113 -47.5t47 -112.5q0 -68 -47.5 -115t-112.5 -47h-760q-84 0 -129 45t-45 129z" />
<glyph unicode="M" horiz-adv-x="2000" d="M123 166v1091q0 82 41 153t111.5 112t152.5 41q98 0 177 -56.5t110 -146.5l243 -692q27 -80 37 -138l11 -55h12q4 37 10 57q20 88 39 140l244 696q29 86 105.5 140.5t170.5 54.5q78 0 145.5 -39t106.5 -106.5t39 -145.5v-1098q0 -78 -56.5 -134t-135.5 -56 q-78 0 -134.5 56t-56.5 134v870h-12l-17 -83q-16 -80 -51 -183l-229 -657q-20 -59 -73.5 -98t-119.5 -39t-119 38.5t-73 98.5l-232 659q-35 100 -51 181q-12 57 -16 83h-13v-878q0 -76 -53 -129t-129 -53t-130 53t-54 129z" />
<glyph unicode="N" horiz-adv-x="1609" d="M125 164v1132q0 72 36 133.5t97 97.5t133 36q70 0 130.5 -35t96.5 -94l410 -680q37 -61 64 -121l24 -55h10v806q0 74 52.5 126.5t128.5 52.5q74 0 126 -52.5t52 -126.5v-1151q0 -102 -74 -175.5t-176 -73.5q-68 0 -125 32.5t-90 87.5l-430 709q-23 37 -68 127 q-14 25 -24 53h-11v-829q0 -74 -53 -127t-127 -53q-76 0 -129 53t-53 127z" />
<glyph unicode="O" horiz-adv-x="1640" d="M61 774q0 242 92.5 423t264.5 281.5t405 100.5q236 0 407 -99.5t261 -281.5t90 -424q0 -244 -91 -426t-263 -281.5t-408 -99.5q-235 0 -406 99.5t-261.5 281.5t-90.5 426zM475 774q0 -250 94.5 -372.5t251.5 -122.5q158 0 252 122.5t94 372.5t-94 372t-252 122t-252 -122 t-94 -372z" />
<glyph unicode="P" horiz-adv-x="1406" d="M129 180v1192q0 84 45 129t129 45h459q178 0 314 -62.5t212 -183t76 -288.5q0 -164 -75 -286t-211 -187.5t-318 -65.5h-238v-293q0 -82 -57 -139t-139 -57t-139.5 57t-57.5 139zM522 774h183q127 0 199.5 55.5t72.5 176.5q0 123 -73 181t-197 58h-185v-471z" />
<glyph unicode="Q" horiz-adv-x="1640" d="M61 774q0 246 90.5 427t261.5 279.5t408 98.5q238 0 409 -98.5t261 -279.5t90 -427q0 -203 -69.5 -361.5t-196.5 -267.5l45 -57q31 -41 31 -88q0 -59 -41 -100t-101 -41q-32 0 -62 14t-48 39l-72 92q-127 -39 -246 -39q-238 0 -408.5 99.5t-261 281.5t-90.5 428zM489 772 q0 -260 91.5 -388t240.5 -128q31 0 45 2l-45 57q-30 36 -30 85q0 62 41.5 103.5t101.5 41.5q33 0 62.5 -15.5t47.5 -40.5l50 -61q59 123 59 346q0 262 -90 387t-242 125t-242 -126t-90 -388z" />
<glyph unicode="R" horiz-adv-x="1429" d="M129 180v1192q0 84 45 129t129 45h502q266 0 418.5 -124t152.5 -349q0 -150 -71.5 -262.5t-202.5 -175.5v-4l192 -371q23 -39 23 -88q0 -78 -55.5 -133t-135.5 -55q-53 0 -99 27.5t-69 74.5l-229 442h-207v-348q0 -82 -57 -139t-139 -57t-139.5 57t-57.5 139zM522 840 h199q115 0 183.5 45t68.5 162q0 121 -67.5 165.5t-184.5 44.5h-199v-417z" />
<glyph unicode="S" horiz-adv-x="1378" d="M59 1108q0 135 73 243.5t212 170t332 61.5q313 0 487 -164q51 -49 51 -135q0 -74 -52 -127t-126 -53q-47 0 -87 23.5t-64 60.5q-63 102 -211 102q-113 0 -166 -41t-53 -100q0 -61 42 -102t152 -64l250 -53q229 -49 333.5 -164t104.5 -295q0 -139 -66.5 -253t-216 -183.5 t-382.5 -69.5q-170 0 -307.5 49t-229.5 136q-25 25 -39 62.5t-14 78.5q0 78 55.5 132t130.5 54q49 0 90 -23.5t66 -62.5q41 -61 106.5 -93t149.5 -32q123 0 184.5 45t61.5 123q0 59 -41 99t-146 63l-252 53q-217 47 -322.5 159t-105.5 300z" />
<glyph unicode="T" horiz-adv-x="1335" d="M20 1391q0 66 46.5 110.5t109.5 44.5h983q66 0 111 -45t45 -110q0 -63 -45 -109.5t-111 -46.5h-295v-1055q0 -82 -57 -139t-139 -57t-139.5 57t-57.5 139v1055h-295q-63 0 -109.5 46t-46.5 110z" />
<glyph unicode="U" horiz-adv-x="1501" d="M106 588v778q0 82 58.5 139.5t140.5 57.5t139.5 -57.5t57.5 -139.5v-791q0 -135 60.5 -209.5t191.5 -74.5q127 0 188.5 76.5t61.5 207.5v793q0 80 57 137.5t137 57.5q82 0 139.5 -57.5t57.5 -137.5v-780q0 -289 -151.5 -456t-487.5 -167q-348 0 -499 165t-151 458z" />
<glyph unicode="V" horiz-adv-x="1413" d="M33 1372q0 78 56 134.5t136 56.5q63 0 114.5 -38t68.5 -98l243 -804q25 -78 47 -183q4 -16 7.5 -35.5t9.5 -39.5h8q6 20 9 39.5t7 35.5q23 104 47 183l246 813q16 55 63.5 91t106.5 36q76 0 128 -52.5t52 -126.5q0 -31 -10 -57l-379 -1137q-29 -92 -108.5 -149 t-179.5 -57q-99 0 -177.5 58t-109.5 148l-375 1121q-10 35 -10 61z" />
<glyph unicode="W" horiz-adv-x="2127" d="M41 1372q0 80 55.5 135.5t132.5 55.5q68 0 120 -42t67 -108l207 -977l249 967q16 70 75 115t132 45q74 0 131.5 -46.5t73.5 -113.5l248 -959l209 979q12 59 61 99.5t111 40.5q74 0 125 -51.5t51 -125.5q0 -14 -4 -38l-256 -1135q-23 -98 -103.5 -163.5t-185.5 -65.5 q-102 0 -182 62.5t-105 158.5l-192 760l-193 -760q-25 -98 -103.5 -159.5t-180.5 -61.5q-105 0 -183.5 65.5t-101.5 163.5l-254 1118q-4 29 -4 41z" />
<glyph unicode="X" horiz-adv-x="1236" d="M45 160q0 45 27 92l331 532l-311 508q-26 45 -26 89q0 77 52 129.5t126 52.5q47 0 87 -25t64 -63l236 -402l237 406q23 39 62 61.5t84 22.5q72 0 121 -49.5t49 -120.5q0 -47 -27 -88l-323 -523l327 -524q27 -47 27 -94q0 -76 -52.5 -128t-127.5 -52q-49 0 -91.5 24.5 t-64.5 65.5l-240 415l-239 -417q-25 -39 -65 -63.5t-87 -24.5q-74 0 -125 51t-51 125z" />
<glyph unicode="Y" horiz-adv-x="1241" d="M77 1510.5q52 52.5 128 52.5q49 0 91 -26t64 -69l277 -503l262 508q20 41 60 65.5t90 24.5q70 0 119 -49.5t49 -118.5q0 -43 -23 -82l-371 -654v-479q0 -82 -57 -139t-139 -57t-139.5 57t-57.5 139v461l-381 651q-24 43 -24 88q0 78 52 130.5z" />
<glyph unicode="Z" horiz-adv-x="1359" d="M37 162q0 57 31 96l725 977h-562q-63 0 -109 46t-46 110q0 66 46 110.5t109 44.5h895q70 0 119 -49t49 -119q0 -57 -32 -100l-721 -967h622q66 0 111 -45t45 -110q0 -63 -45 -109.5t-111 -46.5h-964q-66 0 -114 47t-48 115z" />
<glyph unicode="[" horiz-adv-x="692" d="M133 -262v1825q0 35 19.5 53t52.5 18h389q35 0 53.5 -18.5t18.5 -52.5v-56q0 -33 -18.5 -52t-53.5 -19h-119q-33 0 -52.5 -18.5t-19.5 -53.5v-1427q0 -35 19.5 -53.5t52.5 -18.5h119q35 0 53.5 -19.5t18.5 -52.5v-55q0 -35 -18.5 -53.5t-53.5 -18.5h-389 q-33 0 -52.5 18.5t-19.5 53.5z" />
<glyph unicode="\" horiz-adv-x="866" d="M-8 1534q0 47 33.5 82t83.5 35q37 0 67.5 -21.5t42.5 -56.5l647 -1763q8 -29 8 -41q0 -49 -34.5 -84t-83.5 -35q-37 0 -68 21.5t-43 56.5l-647 1765q-6 23 -6 41z" />
<glyph unicode="]" horiz-adv-x="692" d="M27 -207q0 33 19.5 52.5t51.5 19.5h117q35 0 53.5 18.5t18.5 53.5v1427q0 35 -18.5 53.5t-53.5 18.5h-117q-33 0 -52 19.5t-19 51.5v56q0 35 19.5 53t51.5 18h389q35 0 53.5 -18.5t18.5 -52.5v-1825q0 -35 -18.5 -53.5t-53.5 -18.5h-389q-32 0 -51.5 18.5t-19.5 53.5v55z " />
<glyph unicode="_" horiz-adv-x="1148" d="M76 -350q0 51 35.5 87t87.5 36h749q51 0 87 -36t36 -87t-36 -87t-87 -36h-749q-52 0 -87.5 36t-35.5 87z" />
<glyph unicode="`" horiz-adv-x="526" d="M41 1528q0 29 26.5 47t71.5 18h103q47 0 79.5 -18.5t55.5 -58.5l76 -130q20 -35 20 -67q0 -31 -22.5 -49.5t-63.5 -18.5h-59q-45 0 -77 15.5t-61 50.5l-116 139q-33 39 -33 72z" />
<glyph unicode="a" horiz-adv-x="1181" d="M18 313q0 217 164 290t414 73q47 0 70 -2l69 -2q0 70 -10 111.5t-44 66t-101 24.5q-94 0 -140 -59q-51 -70 -125 -70q-68 0 -115.5 48.5t-47.5 117.5q0 41 18 77t53 59q76 49 169 73.5t192 24.5q254 0 386 -108.5t132 -356.5l-2 -291q0 -76 2 -113l2 -114 q0 -72 -52.5 -125t-125.5 -53q-68 0 -117 43t-59 108q-63 -88 -148.5 -125t-202.5 -37q-104 0 -191 40t-138.5 117t-51.5 183zM391 336q0 -55 38 -87t95 -32q101 0 157 67.5t56 170.5v16l-121 2q-225 0 -225 -137z" />
<glyph unicode="b" horiz-adv-x="1314" d="M106 158v1261q0 78 56.5 134.5t134.5 56.5t134 -56.5t56 -134.5v-463q100 182 324 183q152 0 255 -75t154.5 -201t51.5 -283q0 -184 -63.5 -321.5t-173 -210.5t-244.5 -73q-134 0 -208.5 42t-125.5 104q-12 -59 -62.5 -98t-113.5 -39q-72 0 -123.5 51t-51.5 123zM477 559 q0 -172 56.5 -250t148.5 -78q90 0 148.5 82t58.5 246q0 162 -57.5 237.5t-145.5 75.5q-96 0 -152.5 -77.5t-56.5 -235.5z" />
<glyph unicode="c" horiz-adv-x="1118" d="M41 555q0 166 68.5 300t201.5 212t322 78q236 0 385 -129q25 -23 38 -58.5t13 -74.5q0 -70 -49 -119t-119 -49q-47 0 -86 23.5t-61 60.5q-40 73 -133 73h-3q-90 0 -143 -77.5t-53 -237.5q0 -162 54 -238.5t142 -76.5q94 0 144 84q25 43 62.5 67.5t86.5 24.5 q72 0 124 -51.5t52 -124.5q0 -74 -49 -123q-145 -150 -422 -150q-286 0 -430.5 156t-144.5 430z" />
<glyph unicode="d" horiz-adv-x="1314" d="M43 580q0 158 51 283.5t154.5 200.5t255.5 75q223 0 323 -183v463q0 78 56.5 134.5t134.5 56.5t134 -56.5t56 -134.5v-1261q0 -72 -51 -123t-123 -51q-63 0 -113.5 38.5t-62.5 98.5q-51 -61 -126 -103.5t-208 -42.5q-135 0 -244.5 73t-173 210t-63.5 322zM426 559 q0 -164 58.5 -246t148.5 -82q92 0 148.5 78t56.5 250q0 158 -56.5 235.5t-152.5 77.5q-88 0 -145.5 -75.5t-57.5 -237.5z" />
<glyph unicode="e" horiz-adv-x="1193" d="M37 555q0 170 70.5 304t201.5 210t305 76q176 0 303 -75t192 -195.5t65 -251.5q0 -84 -39 -125t-129 -41h-605q10 -100 72 -159.5t158 -59.5q57 0 96 19t70 50q29 27 52 40t58 13q63 0 108.5 -46t45.5 -111q0 -72 -62 -123q-55 -47 -157.5 -79t-218.5 -32 q-168 0 -301.5 72t-209 205t-75.5 309zM403 680h404q-4 98 -58.5 155.5t-140.5 57.5t-140 -57.5t-65 -155.5z" />
<glyph unicode="f" horiz-adv-x="796" d="M-2 991q0 51 37 88t88 37h57v35q0 231 108.5 343t354.5 112q84 0 132 -32t48 -112q0 -59 -30.5 -105t-85.5 -46q-80 0 -113 -32t-33 -116v-47h113q51 0 88 -37t37 -88q0 -53 -37 -90t-88 -37h-113v-690q0 -78 -56 -134t-134 -56t-134.5 56t-56.5 134v690h-57 q-51 0 -88 37t-37 90z" />
<glyph unicode="g" horiz-adv-x="1310" d="M41 569q0 172 63.5 301t178 199t264.5 70q209 0 309 -148q10 59 60.5 100.5t113.5 41.5q74 0 125 -51.5t51 -123.5v-827q0 -299 -148.5 -452.5t-475.5 -153.5q-226 0 -365 100q-29 23 -46 58.5t-17 74.5q0 66 46 113t111 47q37 0 69 -15.5t54 -41.5q33 -39 73 -56.5 t95 -17.5q111 0 169 61.5t58 182.5v123q-55 -70 -128.5 -109t-194.5 -39q-236 0 -350.5 161t-114.5 402zM424 571q0 -143 53 -229t154 -86q100 0 152.5 85t52.5 230t-52.5 230.5t-152.5 85.5t-153.5 -86t-53.5 -230z" />
<glyph unicode="h" horiz-adv-x="1294" d="M104 174v1245q0 78 56.5 134.5t134.5 56.5t134 -56.5t56 -134.5v-473q43 86 125 140.5t209 54.5q205 0 299 -116t94 -318v-533q0 -78 -56 -134t-134 -56t-134.5 56t-56.5 134v473q0 115 -49 160t-112 45q-76 0 -130.5 -54.5t-54.5 -197.5v-426q0 -78 -56 -134t-134 -56 t-134.5 56t-56.5 134z" />
<glyph unicode="i" horiz-adv-x="571" d="M78 1434q0 66 47 112.5t113 46.5h94q66 0 113 -47t47 -112q0 -66 -47.5 -113t-112.5 -47h-94q-66 0 -113 47t-47 113zM94 174v768q0 78 56.5 134.5t134.5 56.5t134 -56.5t56 -134.5v-768q0 -78 -56.5 -134t-133.5 -56q-78 0 -134.5 56t-56.5 134z" />
<glyph unicode="j" horiz-adv-x="589" d="M-154 -336q0 55 32 97t81 59q145 0 145 151v971q0 78 56.5 134.5t134.5 56.5t134 -56.5t56 -134.5v-950q0 -223 -115.5 -345t-346.5 -122q-66 0 -107 8q-33 23 -51.5 57.5t-18.5 73.5zM88 1434q0 66 47 112.5t113 46.5h94q66 0 113 -47t47 -112q0 -66 -47 -113t-113 -47 h-94q-66 0 -113 47t-47 113z" />
<glyph unicode="k" horiz-adv-x="1157" d="M104 172v1249q0 78 55.5 133.5t135.5 55.5q78 0 133 -55.5t55 -133.5v-706l310 364q43 53 118 54q63 0 108.5 -45.5t45.5 -108.5q0 -57 -41 -105l-174 -192l264 -426q27 -43 27 -94q0 -74 -52.5 -126t-125.5 -52q-49 0 -90.5 23.5t-63.5 62.5l-227 374l-99 -110v-162 q0 -78 -55 -133t-135 -55q-78 0 -133.5 55t-55.5 133z" />
<glyph unicode="l" horiz-adv-x="589" d="M104 174v1245q0 78 56.5 134.5t134.5 56.5t134 -56.5t56 -134.5v-1245q0 -78 -56 -134t-134 -56t-134.5 56t-56.5 134z" />
<glyph unicode="m" horiz-adv-x="2013" d="M96 174v782q0 72 52.5 124.5t123.5 52.5q74 0 126.5 -52.5t52.5 -124.5v-28q47 92 137 151.5t223 59.5q276 0 360 -221q109 221 367 221q205 0 299 -116t94 -318v-531q0 -78 -56 -134t-134 -56t-134.5 56t-56.5 134v473q0 115 -49 159t-112 44q-74 0 -129.5 -54.5 t-55.5 -195.5v-426q0 -78 -56 -134t-134 -56t-134.5 56t-56.5 134v473q0 115 -49 159t-112 44q-74 0 -129.5 -54.5t-55.5 -195.5v-426q0 -78 -56 -134t-134 -56t-134.5 56t-56.5 134z" />
<glyph unicode="n" horiz-adv-x="1286" d="M96 174v782q0 72 52.5 124.5t123.5 52.5q74 0 126.5 -52.5t52.5 -124.5v-28q47 92 137 151.5t223 59.5q205 0 299 -116t94 -318v-531q0 -78 -56 -134t-134 -56t-134.5 56t-56.5 134v471q0 115 -49 160t-112 45q-76 0 -130.5 -54.5t-54.5 -197.5v-424q0 -78 -56 -134 t-134 -56t-134.5 56t-56.5 134z" />
<glyph unicode="o" horiz-adv-x="1253" d="M39 555q0 172 69.5 305t202.5 209t318 76q184 0 317 -76t200.5 -209t67.5 -301q0 -170 -70.5 -304t-204.5 -210t-318 -76q-185 0 -316 76t-198.5 209t-67.5 301zM420 559q0 -150 52 -233.5t155 -83.5q102 0 153 84t51 231t-51 231t-155 84q-102 0 -153.5 -82.5 t-51.5 -230.5z" />
<glyph unicode="p" horiz-adv-x="1314" d="M106 -283v1241q0 72 51.5 123.5t123.5 51.5q74 0 125 -51.5t51 -123.5v-12q68 92 149.5 142.5t214.5 50.5q147 0 248.5 -75t152 -201t50.5 -283q0 -184 -65.5 -321.5t-181.5 -210.5t-263 -73q-158 0 -275 105v-363q0 -78 -56 -134t-134 -56t-134.5 56.5t-56.5 133.5z M477 559q0 -172 56.5 -250t148.5 -78q90 0 148.5 82t58.5 246q0 162 -56.5 237.5t-142.5 75.5q-96 0 -154.5 -77.5t-58.5 -235.5z" />
<glyph unicode="q" horiz-adv-x="1314" d="M43 551q0 168 58.5 301t174 210t281.5 77q197 0 301 -140q14 57 63.5 95.5t112.5 38.5q72 0 123 -51.5t51 -123.5v-1239q0 -78 -56 -134t-134 -56t-134.5 56.5t-56.5 133.5v398q-55 -68 -125.5 -104t-181.5 -36q-221 0 -349 155t-128 419zM426 551q0 -145 52 -232.5 t155 -87.5q102 0 153.5 87.5t51.5 232.5q0 147 -52.5 234t-152.5 87q-104 0 -155.5 -86t-51.5 -235z" />
<glyph unicode="r" horiz-adv-x="856" d="M96 174v782q0 72 52.5 124.5t123.5 52.5q74 0 126.5 -52.5t52.5 -124.5v-49h8q25 61 62.5 109.5t74.5 68.5q35 18 80 19q92 0 135 -52.5t43 -113.5q0 -63 -44 -112.5t-116 -49.5q-43 0 -87 -18.5t-75 -55.5q-55 -68 -55 -192v-336q0 -78 -56 -134t-134 -56t-134.5 56 t-56.5 134z" />
<glyph unicode="s" horiz-adv-x="1062" d="M39 762q0 176 138 279.5t368 103.5q168 0 293 -53.5t125 -163.5q0 -74 -44.5 -118t-109.5 -44q-74 0 -127 68q-20 29 -51 45t-92 16q-66 0 -104 -22.5t-38 -65.5q0 -35 29 -53.5t98 -32.5l160 -33q184 -39 267 -116.5t83 -215.5q0 -180 -132 -285.5t-398 -105.5 q-185 0 -313 53.5t-128 169.5q0 68 45.5 118t116.5 50q41 0 70 -17t57 -50q31 -39 61.5 -55.5t98.5 -16.5q158 0 158 98q0 33 -23.5 53.5t-95.5 34.5l-139 29q-193 39 -283 117t-90 213z" />
<glyph unicode="t" horiz-adv-x="837" d="M-2 989q0 53 37 90t88 37h70l8 152q4 68 54 116t120 48q72 0 123 -51.5t51 -123.5v-141h121q51 0 88 -37t37 -88q0 -53 -37 -90t-88 -37h-113v-456q0 -84 36 -119t109 -35q47 -10 80 -48t33 -89q0 -43 -23.5 -77t-60.5 -50q-82 -14 -194 -15q-197 -1 -279 97 q-80 95 -80 293v10l2 489h-57q-51 0 -88 37t-37 88z" />
<glyph unicode="u" horiz-adv-x="1265" d="M82 408v534q0 78 56.5 134.5t133.5 56.5q78 0 134.5 -56.5t56.5 -134.5v-475q0 -115 46 -161t105 -46q80 0 127 63.5t47 184.5v434q0 78 56.5 134.5t134.5 56.5t134 -56.5t56 -134.5v-782q0 -72 -52 -124t-126 -52q-72 0 -124 52t-52 124v43q-47 -102 -130 -166t-210 -64 q-209 0 -301 118t-92 317z" />
<glyph unicode="v" horiz-adv-x="1093" d="M14 946q0 78 55.5 132.5t131.5 54.5q63 0 112 -37t66 -97l123 -411q20 -68 37 -156q10 -37 12 -74h12q8 49 15 74q12 61 38 154l127 424q16 53 61.5 88t102.5 35q72 0 122 -50.5t50 -121.5q0 -29 -10 -60l-264 -735q-29 -82 -99.5 -132t-160.5 -50t-161 50t-99 132 l-258 719q-12 41 -13 61z" />
<glyph unicode="w" horiz-adv-x="1728" d="M25 954q0 74 52 126.5t126 52.5q63 0 112.5 -41t61.5 -103l72 -373l34 -206l15 -107h12l18 107q18 113 41 206l78 338q16 76 80 127.5t143 51.5q80 0 143.5 -51.5t80.5 -127.5l77 -338q16 -68 43 -223l21 -123h12l17 123q20 147 34 223l72 379q10 59 57.5 98.5 t108.5 39.5q72 0 121 -49.5t49 -120.5q0 -2 -6 -39l-174 -723q-23 -94 -100.5 -155.5t-176.5 -61.5q-102 0 -179 62.5t-99 160.5l-60 268q-10 43 -30 170q-8 43 -13 86h-14l-14 -86q-20 -119 -31 -168l-61 -274q-23 -96 -99 -157.5t-174 -61.5t-174 60t-98 155l-172 714 q-6 37 -6 41z" />
<glyph unicode="x" horiz-adv-x="987" d="M25 135q0 45 28 88l242 342l-205 293q-33 45 -33 100q0 72 51.5 123.5t124.5 51.5q45 0 84 -21.5t62 -58.5l139 -213l139 221q20 33 55.5 52.5t75.5 19.5q63 0 108.5 -45.5t45.5 -108.5q0 -47 -29 -90l-219 -311l226 -322q32 -46 32 -97q0 -75 -51 -125t-123 -50 q-45 0 -83 20.5t-60 54.5l-166 248l-164 -254q-20 -33 -54 -51t-75 -18q-63 0 -107 44t-44 107z" />
<glyph unicode="y" horiz-adv-x="1099" d="M14 948q0 78 54.5 131.5t130.5 53.5q59 0 107 -35t67 -90l137 -406q29 -86 39 -151q4 -25 8 -70h12q2 33 13 70q18 88 39 151l131 412q16 51 61 85t102 34q72 0 121 -50.5t49 -121.5q0 -29 -10 -60l-471 -1259q-18 -51 -62 -82t-100 -31q-69 0 -120.5 50t-51.5 122 q0 25 13 61l82 222l-338 901q-12 29 -13 63z" />
<glyph unicode="z" horiz-adv-x="1056" d="M27 154q0 55 36 98l490 584h-371q-57 0 -98 42t-41 99t41 98t98 41h684q63 0 107.5 -44t44.5 -107q0 -57 -35 -99l-487 -583h391q59 0 100 -41t41 -101q0 -57 -41 -99t-100 -42h-707q-63 0 -108 45t-45 109z" />
<glyph unicode="{" horiz-adv-x="743" d="M8 647q0 41 24.5 73t61.5 44q70 0 109 42t30 132l-24 336q-2 14 -2 43q0 176 110.5 246.5t325.5 70.5q35 -8 57.5 -33.5t22.5 -62.5q0 -33 -18.5 -59.5t-49.5 -36.5q-104 0 -138 -36t-30 -132l13 -322q4 -135 -40 -201.5t-157 -95.5v-10q106 -25 155.5 -90.5t43.5 -192.5 l-15 -335q-4 -94 31 -131t137 -37q29 -10 46.5 -37t17.5 -60q0 -37 -24.5 -64.5t-59.5 -31.5q-213 0 -320.5 69.5t-107.5 244.5q0 29 2 45l24 346q6 82 -31.5 120.5t-109.5 38.5q-37 12 -60.5 45t-23.5 72z" />
<glyph unicode="|" horiz-adv-x="567" d="M164 -231v1763q0 49 34.5 84t84.5 35q49 0 83.5 -35t34.5 -84v-1763q0 -49 -34.5 -84t-83.5 -35q-50 0 -84.5 34.5t-34.5 84.5z" />
<glyph unicode="}" horiz-adv-x="743" d="M20 -238q0 33 18.5 59.5t49.5 37.5q104 0 138 35.5t30 132.5l-12 321q-4 135 40 201.5t156 95.5v10q-106 25 -155 90.5t-43 192.5l14 336q4 94 -31 131t-137 37q-29 10 -46 36.5t-17 59.5q0 37 24.5 64.5t59.5 31.5q213 0 320.5 -69.5t107.5 -243.5q0 -29 -2 -45 l-25 -346q-6 -82 32 -121t109 -39q37 -12 60.5 -45t23.5 -72q0 -41 -24.5 -72.5t-61.5 -43.5q-154 0 -139 -175l25 -335q2 -14 2 -43q0 -176 -111 -247t-326 -71q-34 8 -57 34t-23 62z" />
<glyph unicode="&#xa1;" horiz-adv-x="616" d="M100 1073q0 74 52.5 126t126.5 52h57q74 0 126 -52t52 -126q0 -76 -52 -128t-126 -52h-57q-74 0 -126.5 52t-52.5 128zM131 -182v389l41 407q4 51 44 87t91 36q53 0 93 -35.5t44 -89.5l39 -405v-389q0 -72 -52 -124t-124 -52q-71 0 -123.5 52t-52.5 124z" />
<glyph unicode="&#xa2;" horiz-adv-x="1210" d="M84 555q0 238 131 397.5t375 188.5v209q0 29 21.5 50t50.5 21t50 -21.5t21 -49.5v-207q201 -14 332 -129q49 -43 49 -127q0 -68 -47 -114t-113 -46q-47 0 -83.5 21.5t-57.5 60.5q-27 53 -80 70v-641q59 23 86 79q23 41 61 66t83 25q70 0 120 -49.5t50 -118.5 q0 -66 -48 -117q-125 -133 -352 -152v-207q0 -29 -21.5 -50t-49.5 -21q-29 0 -50.5 21.5t-21.5 49.5v207q-252 20 -379 173t-127 411zM457 557q0 -150 34.5 -224.5t98.5 -94.5v641q-63 -25 -98 -101t-35 -221z" />
<glyph unicode="&#xa3;" horiz-adv-x="1323" d="M72 137q0 43 22.5 72t65.5 49q57 29 89 51.5t51 63.5t19 108q0 51 -12 121h-82q-51 0 -87 36t-36 87t36 88t87 37h31l-25 119q-14 66 -14 135q0 139 62.5 246.5t181.5 167t282 59.5q324 0 443 -240q16 -37 16 -75q0 -72 -50 -121t-124 -49q-100 0 -154 100 q-25 47 -53 70.5t-90 23.5q-156 0 -156 -170q0 -35 11 -96l30 -170h224q51 0 87 -36t36 -87t-36 -88t-87 -37h-183q2 -14 2 -43q0 -166 -145 -248v-8h584q61 0 106 -44t45 -107t-45 -107.5t-106 -44.5h-895q-56 0 -93.5 39t-37.5 98z" />
<glyph unicode="&#xa4;" horiz-adv-x="1179" d="M111 328q0 49 39 88l106 106q-37 74 -37 162q0 90 33 156l-102 104q-37 37 -37 88t36.5 88t88.5 37q55 0 90 -39l100 -102q72 37 160 37t157 -37l113 114q35 39 90 39q53 0 90 -36.5t37 -90.5q0 -47 -37 -88l-114 -118q33 -68 32 -152q0 -80 -34 -156l102 -100 q39 -39 39 -92q0 -51 -37 -89t-90 -38t-90 37l-105 102q-74 -33 -153 -33q-82 0 -156 33l-106 -108q-37 -37 -90 -37q-52 0 -88.5 36.5t-36.5 88.5zM430 684q0 -76 45 -122t115 -46q67 0 113.5 47t46.5 121q0 72 -46.5 118t-113.5 46q-68 0 -114 -45t-46 -119z" />
<glyph unicode="&#xa5;" horiz-adv-x="1423" d="M84 301q0 43 30.5 74t73.5 31h347v169h-347q-43 0 -73.5 31t-30.5 74t30.5 73.5t73.5 30.5h304l-302 516q-25 45 -24 89q0 72 51 123t123 51q51 0 92 -26t64 -69l235 -452l221 452q20 43 60.5 69t89.5 26q70 0 118 -48.5t48 -117.5q0 -45 -23 -84l-303 -529h291 q43 0 73.5 -30.5t30.5 -73.5t-30.5 -74t-73.5 -31h-324v-169h324q43 0 73.5 -31t30.5 -74t-30.5 -73.5t-73.5 -30.5h-324v-27q0 -76 -54 -131t-132 -55t-133 54t-55 132v27h-347q-43 0 -73.5 30.5t-30.5 73.5z" />
<glyph unicode="&#xa7;" horiz-adv-x="1230" d="M74 762q0 82 36.5 143.5t120.5 104.5v4q-86 72 -86 213q0 166 129 261t347 95q119 0 218 -29.5t150 -80.5q45 -45 45 -111q0 -68 -43 -110t-108 -42q-39 0 -67 17.5t-52 48.5q-27 35 -58.5 55.5t-95.5 20.5q-63 0 -99 -24.5t-36 -74.5q0 -33 23.5 -54t91.5 -34l276 -53 q129 -25 208 -99.5t79 -203.5q0 -166 -147 -246v-6q104 -84 104 -225q0 -166 -134 -266.5t-370 -100.5q-137 0 -241.5 34t-151.5 85q-43 47 -43 113q0 70 44 113.5t108 43.5q41 0 68.5 -17.5t53.5 -49.5q33 -41 67 -60.5t105 -19.5q150 0 150 98q0 74 -94 90l-295 54 q-133 23 -218 101.5t-85 211.5zM383 840q0 -49 35 -78t102 -41l223 -43l70 -16q21 28 21 67q0 47 -32 76t-104 43l-215 41q-37 6 -77 18q-23 -31 -23 -67z" />
<glyph unicode="&#xa8;" horiz-adv-x="987" d="M70 1436q0 66 47 111.5t110 45.5h47q66 0 112 -46t46 -111q0 -66 -46 -113t-112 -47h-47q-65 0 -111 47t-46 113zM555 1434q0 66 46 112.5t112 46.5h47q66 0 112 -46t46 -111q0 -66 -46.5 -113t-111.5 -47h-47q-64 0 -111 47t-47 111z" />
<glyph unicode="&#xa9;" horiz-adv-x="1771" d="M82 772q0 229 107.5 413.5t291 288t404.5 103.5q223 0 407.5 -103.5t291 -288t106.5 -413.5t-107.5 -412.5t-292 -287t-405.5 -103.5q-223 0 -406.5 103.5t-290 287t-106.5 412.5zM223 772q0 -197 88 -350.5t238.5 -239.5t335.5 -86q184 0 335.5 86t239.5 239.5t88 350.5 t-88 351.5t-239.5 240.5t-335.5 86t-335 -86t-239 -240.5t-88 -351.5zM440 780q0 137 52.5 246t156 171.5t248.5 62.5q94 0 171 -30t132 -81q37 -37 37 -100q0 -55 -39 -94.5t-92 -39.5q-37 0 -68.5 17.5t-48.5 48.5q-31 57 -102 57q-70 0 -111 -63.5t-41 -192.5 q0 -131 42 -193.5t110 -62.5t108 68q18 33 49 52.5t68 19.5q57 0 98 -41t41 -99q0 -51 -34 -92q-113 -129 -332 -129q-221 0 -333 126t-112 349z" />
<glyph unicode="&#xab;" horiz-adv-x="1034" d="M49 530q0 57 35 123l141 256q16 33 48 51.5t69 18.5q57 0 96 -39t39 -96q0 -29 -14 -62l-125 -245l125 -250q14 -33 14 -62q0 -57 -40 -97t-97 -40q-39 0 -71.5 19.5t-49.5 52.5l-137 256q-33 59 -33 114zM524 530q0 57 35 123l141 256q16 33 48 51.5t69 18.5 q57 0 96 -39t39 -96q0 -29 -14 -62l-125 -245l125 -250q14 -33 14 -62q0 -57 -40 -97t-97 -40q-39 0 -71.5 19.5t-49.5 52.5l-137 256q-33 59 -33 114z" />
<glyph unicode="&#xad;" horiz-adv-x="884" d="M70 618q0 63 44 107.5t107 44.5h441q63 0 107 -44t44 -108q0 -63 -44 -108t-107 -45h-441q-63 0 -107 45t-44 108z" />
<glyph unicode="&#xae;" horiz-adv-x="1036" d="M96 1149q0 117 56.5 213t152.5 152.5t213 56.5t213 -56.5t152.5 -152.5t56.5 -213t-56.5 -213t-152.5 -152.5t-213 -56.5t-213 56.5t-152.5 152.5t-56.5 213zM168 1149q0 -96 47 -178t127 -130t176 -48t176 48t127 130t47 178t-47 178t-127 130t-176 48t-176 -48 t-127 -130t-47 -178zM344 995v318q0 35 19.5 53t52.5 18h119q82 0 132 -36.5t50 -106.5q0 -88 -92 -125l57 -106q16 -33 16 -52q0 -35 -36 -34h-11q-57 0 -84 51l-61 115h-41v-95q0 -35 -15.5 -53t-43.5 -18q-29 0 -45.5 18.5t-16.5 52.5zM465 1174h51q41 0 58.5 15t17.5 46 q0 27 -16.5 44t-53.5 17h-57v-122z" />
<glyph unicode="&#xb4;" horiz-adv-x="526" d="M53 1323q0 31 21 63l76 130q23 41 55.5 59t79.5 18h102q45 0 71.5 -18.5t26.5 -46.5q0 -33 -32 -72l-117 -139q-29 -35 -60.5 -50.5t-76.5 -15.5h-47q-48 0 -73.5 19.5t-25.5 52.5z" />
<glyph unicode="&#xb8;" horiz-adv-x="573" d="M37 -367q0 31 21.5 51.5t47.5 20.5q25 0 44 -14q53 -37 104 -37q78 0 78 61q0 31 -16.5 46.5t-47.5 15.5t-69 6q-39 6 -59.5 28.5t-20.5 55.5q0 29 16 61l39 78h119l-60 -106l7 -6q41 10 84 10q94 0 148 -50.5t54 -134.5q0 -94 -69.5 -144t-186.5 -50q-63 0 -115.5 13 t-82.5 36q-35 27 -35 59z" />
<glyph unicode="&#xbb;" horiz-adv-x="1034" d="M82 223q0 29 14 62l125 245l-125 250q-14 33 -14 62q0 57 40 97t97 40q39 0 72 -19.5t49 -52.5l137 -256q33 -59 33 -114q0 -57 -35 -123l-141 -256q-16 -33 -48 -51.5t-69 -18.5q-57 0 -96 39t-39 96zM557 223q0 29 14 62l125 245l-125 250q-14 33 -14 62q0 57 40 97 t97 40q39 0 72 -19.5t49 -52.5l137 -256q33 -59 33 -114q0 -57 -35 -123l-141 -256q-16 -33 -48 -51.5t-69 -18.5q-57 0 -96 39t-39 96z" />
<glyph unicode="&#xbf;" horiz-adv-x="1191" d="M53 84q0 102 29 172t80 120t141 111l37 25q84 57 107.5 85t25.5 83q23 35 68 52.5t96 17.5q55 0 101 -31t67 -80q2 -76 -18.5 -126t-60.5 -88t-118 -93q-102 -72 -140 -117t-38 -113q0 -72 49 -115.5t139 -43.5q143 0 199 118q23 47 65 75t95 28q72 0 124 -52.5 t52 -123.5q0 -47 -27 -94q-70 -115 -197.5 -182.5t-314.5 -67.5q-266 0 -413.5 116.5t-147.5 323.5zM432 1073q0 74 52.5 126t125.5 52h58q74 0 126 -52t52 -128q0 -74 -52.5 -126t-125.5 -52h-58q-73 0 -125.5 52t-52.5 128z" />
<glyph unicode="&#xc0;" d="M31 162q0 27 10 57l389 1127q33 96 117 156.5t190 60.5q104 0 188.5 -60.5t116.5 -156.5l385 -1115q10 -35 11 -61q0 -76 -54.5 -131t-132.5 -55q-61 0 -110 35.5t-68 93.5l-67 215h-557l-68 -219q-16 -55 -63.5 -90t-108.5 -35q-74 0 -126 52t-52 126zM420 1958 q0 29 26.5 47t71.5 18h102q47 0 80 -18.5t55 -58.5l76 -130q20 -35 21 -67q0 -31 -22.5 -49.5t-63.5 -18.5h-60q-45 0 -76.5 15.5t-60.5 50.5l-117 139q-33 39 -32 72zM545 631h364l-98 313q-31 98 -51 180l-21 80h-24l-21 -80q-20 -82 -51 -180z" />
<glyph unicode="&#xc1;" d="M31 162q0 27 10 57l389 1127q33 96 117 156.5t190 60.5q104 0 188.5 -60.5t116.5 -156.5l385 -1115q10 -35 11 -61q0 -76 -54.5 -131t-132.5 -55q-61 0 -110 35.5t-68 93.5l-67 215h-557l-68 -219q-16 -55 -63.5 -90t-108.5 -35q-74 0 -126 52t-52 126zM545 631h364 l-98 313q-31 98 -51 180l-21 80h-24l-21 -80q-20 -82 -51 -180zM614 1753q0 31 20 63l76 130q23 41 55.5 59t79.5 18h103q45 0 71.5 -18.5t26.5 -46.5q0 -33 -33 -72l-116 -139q-29 -35 -61 -50.5t-77 -15.5h-47q-47 0 -72.5 19.5t-25.5 52.5z" />
<glyph unicode="&#xc2;" d="M31 162q0 27 10 57l389 1127q33 96 117 156.5t190 60.5q104 0 188.5 -60.5t116.5 -156.5l385 -1115q10 -35 11 -61q0 -76 -54.5 -131t-132.5 -55q-61 0 -110 35.5t-68 93.5l-67 215h-557l-68 -219q-16 -55 -63.5 -90t-108.5 -35q-74 0 -126 52t-52 126zM398 1847 q0 33 18.5 58.5t48.5 37.5l240 91q14 6 33 6q16 0 32 -6l240 -91q31 -12 49.5 -37.5t18.5 -58.5q0 -55 -35 -90t-84 -35q-25 0 -51 11l-140 51q-16 6 -32 6q-14 0 -29 -6l-137 -47q-31 -10 -53 -11q-51 0 -85 34t-34 87zM545 631h364l-98 313q-31 98 -51 180l-21 80h-24 l-21 -80q-20 -82 -51 -180z" />
<glyph unicode="&#xc3;" d="M31 162q0 27 10 57l389 1127q33 96 117 156.5t190 60.5q104 0 188.5 -60.5t116.5 -156.5l385 -1115q10 -35 11 -61q0 -76 -54.5 -131t-132.5 -55q-61 0 -110 35.5t-68 93.5l-67 215h-557l-68 -219q-16 -55 -63.5 -90t-108.5 -35q-74 0 -126 52t-52 126zM320 1776 q0 14 2 22q51 207 258 207q41 0 81 -10.5t91 -30.5q88 -31 127 -31q59 0 78 39q12 25 38.5 40t57.5 15q45 0 75 -30.5t30 -73.5q0 -14 -2 -23q-49 -207 -248 -206q-41 0 -85 11t-104 32q-88 33 -125 32q-31 0 -49 -9t-30 -32q-12 -25 -38 -40t-55 -15q-43 0 -72.5 31 t-29.5 72zM545 631h364l-98 313q-31 98 -51 180l-21 80h-24l-21 -80q-20 -82 -51 -180z" />
<glyph unicode="&#xc4;" d="M31 162q0 27 10 57l389 1127q33 96 117 156.5t190 60.5q104 0 188.5 -60.5t116.5 -156.5l385 -1115q10 -35 11 -61q0 -76 -54.5 -131t-132.5 -55q-61 0 -110 35.5t-68 93.5l-67 215h-557l-68 -219q-16 -55 -63.5 -90t-108.5 -35q-74 0 -126 52t-52 126zM313 1866 q0 66 46.5 111.5t111.5 45.5h47q63 0 110.5 -46t47.5 -111q0 -66 -46 -113t-112 -47h-47q-65 0 -111.5 47t-46.5 113zM545 631h364l-98 313q-31 98 -51 180l-21 80h-24l-21 -80q-20 -82 -51 -180zM799 1864q0 66 46 112.5t112 46.5h47q63 0 110 -46t47 -111q0 -66 -46 -113 t-111 -47h-47q-66 0 -112 47t-46 111z" />
<glyph unicode="&#xc5;" d="M31 162q0 27 10 57l389 1127q33 96 117 156.5t190 60.5q104 0 188.5 -60.5t116.5 -156.5l385 -1115q10 -35 11 -61q0 -76 -54.5 -131t-132.5 -55q-61 0 -110 35.5t-68 93.5l-67 215h-557l-68 -219q-16 -55 -63.5 -90t-108.5 -35q-74 0 -126 52t-52 126zM520 1847 q0 90 63.5 152.5t154.5 62.5q88 0 151.5 -62.5t63.5 -152.5t-62.5 -153.5t-152.5 -63.5q-91 0 -154.5 63.5t-63.5 153.5zM545 631h364l-98 313q-31 98 -51 180l-21 80h-24l-21 -80q-20 -82 -51 -180zM617 1847q0 -51 34.5 -86t86.5 -35q49 0 83.5 35t34.5 86q0 49 -34.5 84 t-83.5 35q-51 0 -86 -35t-35 -84z" />
<glyph unicode="&#xc6;" horiz-adv-x="1961" d="M29 162q0 37 12 67l477 1182q53 135 201 135h1010q66 0 111.5 -47t45.5 -113q0 -63 -46 -110t-111 -47h-467v-307h378q61 0 104.5 -43t43.5 -107q0 -61 -43 -104t-105 -43h-378v-308h507q66 0 112 -46t46 -111q0 -66 -46 -113t-112 -47h-716q-84 0 -129 45t-45 129v154 h-420l-84 -228q-18 -53 -64.5 -84.5t-103.5 -31.5q-74 0 -126 52t-52 126zM567 618h312v611h-91l-36 -107q-47 -135 -109 -301z" />
<glyph unicode="&#xc7;" horiz-adv-x="1488" d="M61 760q0 242 93.5 427t264.5 288.5t400 103.5q188 0 331.5 -60.5t233.5 -170.5q37 -43 37 -121t-54 -132.5t-132 -54.5q-49 0 -93 25t-69 65q-82 139 -254 140q-156 0 -250 -122t-94 -370q0 -254 96.5 -379t247.5 -125q180 0 266 156q25 45 70 72.5t98 27.5 q78 0 134.5 -56t56.5 -136q0 -61 -37 -115q-188 -258 -588 -258h-10l-37 -65l6 -6q41 10 84 10q94 0 148.5 -50.5t54.5 -134.5q0 -94 -69.5 -144t-186.5 -50q-63 0 -115.5 13t-83.5 36q-35 27 -35 59q0 31 21.5 51.5t48.5 20.5q25 0 43 -14q53 -37 105 -37q78 0 77 61 q0 31 -16 46.5t-47 15.5t-70 6t-59.5 28.5t-20.5 55.5q0 29 17 61l22 43q-311 35 -473 241t-162 548z" />
<glyph unicode="&#xc8;" horiz-adv-x="1290" d="M129 174v1198q0 84 45 129t129 45h754q66 0 111.5 -47t45.5 -113q0 -63 -46 -110t-111 -47h-539v-301h445q63 0 108 -45t45 -109q0 -63 -45 -109.5t-108 -46.5h-445v-301h580q66 0 111.5 -46t45.5 -111q0 -66 -46 -113t-111 -47h-795q-84 0 -129 45t-45 129zM363 1958 q0 29 26.5 47t71.5 18h102q47 0 80 -18.5t55 -58.5l76 -130q20 -35 21 -67q0 -31 -22.5 -49.5t-63.5 -18.5h-60q-45 0 -76.5 15.5t-60.5 50.5l-117 139q-33 39 -32 72z" />
<glyph unicode="&#xc9;" horiz-adv-x="1290" d="M129 174v1198q0 84 45 129t129 45h754q66 0 111.5 -47t45.5 -113q0 -63 -46 -110t-111 -47h-539v-301h445q63 0 108 -45t45 -109q0 -63 -45 -109.5t-108 -46.5h-445v-301h580q66 0 111.5 -46t45.5 -111q0 -66 -46 -113t-111 -47h-795q-84 0 -129 45t-45 129zM557 1753 q0 31 20 63l76 130q23 41 55.5 59t79.5 18h103q45 0 71.5 -18.5t26.5 -46.5q0 -33 -33 -72l-116 -139q-29 -35 -61 -50.5t-77 -15.5h-47q-47 0 -72.5 19.5t-25.5 52.5z" />
<glyph unicode="&#xca;" horiz-adv-x="1290" d="M129 174v1198q0 84 45 129t129 45h754q66 0 111.5 -47t45.5 -113q0 -63 -46 -110t-111 -47h-539v-301h445q63 0 108 -45t45 -109q0 -63 -45 -109.5t-108 -46.5h-445v-301h580q66 0 111.5 -46t45.5 -111q0 -66 -46 -113t-111 -47h-795q-84 0 -129 45t-45 129zM340 1847 q0 33 18.5 58.5t48.5 37.5l240 91q14 6 33 6q16 0 32 -6l240 -91q31 -12 49.5 -37.5t18.5 -58.5q0 -55 -35 -90t-84 -35q-25 0 -51 11l-140 51q-16 6 -32 6q-14 0 -29 -6l-137 -47q-31 -10 -53 -11q-51 0 -85 34t-34 87z" />
<glyph unicode="&#xcb;" horiz-adv-x="1290" d="M129 174v1198q0 84 45 129t129 45h754q66 0 111.5 -47t45.5 -113q0 -63 -46 -110t-111 -47h-539v-301h445q63 0 108 -45t45 -109q0 -63 -45 -109.5t-108 -46.5h-445v-301h580q66 0 111.5 -46t45.5 -111q0 -66 -46 -113t-111 -47h-795q-84 0 -129 45t-45 129zM256 1866 q0 66 46.5 111.5t111.5 45.5h47q63 0 110.5 -46t47.5 -111q0 -66 -46 -113t-112 -47h-47q-65 0 -111.5 47t-46.5 113zM742 1864q0 66 46 112.5t112 46.5h47q63 0 110 -46t47 -111q0 -66 -46 -113t-111 -47h-47q-66 0 -112 47t-46 111z" />
<glyph unicode="&#xcc;" horiz-adv-x="647" d="M7 1958q0 29 26.5 47t71.5 18h102q47 0 80 -18.5t55 -58.5l76 -130q20 -35 21 -67q0 -31 -22.5 -49.5t-63.5 -18.5h-60q-45 0 -76.5 15.5t-60.5 50.5l-117 139q-33 39 -32 72zM127 180v1186q0 82 57.5 139.5t139.5 57.5t139 -57.5t57 -139.5v-1186q0 -82 -57 -139 t-139 -57t-139.5 57t-57.5 139z" />
<glyph unicode="&#xcd;" horiz-adv-x="647" d="M127 180v1186q0 82 57.5 139.5t139.5 57.5t139 -57.5t57 -139.5v-1186q0 -82 -57 -139t-139 -57t-139.5 57t-57.5 139zM201 1753q0 31 20 63l76 130q23 41 55.5 59t79.5 18h103q45 0 71.5 -18.5t26.5 -46.5q0 -33 -33 -72l-116 -139q-29 -35 -61 -50.5t-77 -15.5h-47 q-47 0 -72.5 19.5t-25.5 52.5z" />
<glyph unicode="&#xce;" horiz-adv-x="647" d="M-16 1847q0 33 18.5 58.5t48.5 37.5l240 91q14 6 33 6q16 0 32 -6l240 -91q31 -12 49.5 -37.5t18.5 -58.5q0 -55 -35 -90t-84 -35q-25 0 -51 11l-140 51q-16 6 -32 6q-14 0 -29 -6l-137 -47q-31 -10 -53 -11q-51 0 -85 34t-34 87zM127 180v1186q0 82 57.5 139.5 t139.5 57.5t139 -57.5t57 -139.5v-1186q0 -82 -57 -139t-139 -57t-139.5 57t-57.5 139z" />
<glyph unicode="&#xcf;" horiz-adv-x="647" d="M-101 1866q0 66 46.5 111.5t111.5 45.5h47q63 0 110.5 -46t47.5 -111q0 -66 -46 -113t-112 -47h-47q-65 0 -111.5 47t-46.5 113zM127 180v1186q0 82 57.5 139.5t139.5 57.5t139 -57.5t57 -139.5v-1186q0 -82 -57 -139t-139 -57t-139.5 57t-57.5 139zM385 1864 q0 66 46 112.5t112 46.5h47q63 0 110 -46t47 -111q0 -66 -46 -113t-111 -47h-47q-66 0 -112 47t-46 111z" />
<glyph unicode="&#xd1;" horiz-adv-x="1609" d="M125 164v1132q0 72 36 133.5t97 97.5t133 36q70 0 130.5 -35t96.5 -94l410 -680q37 -61 64 -121l24 -55h10v806q0 74 52.5 126.5t128.5 52.5q74 0 126 -52.5t52 -126.5v-1151q0 -102 -74 -175.5t-176 -73.5q-68 0 -125 32.5t-90 87.5l-430 709q-23 37 -68 127 q-14 25 -24 53h-11v-829q0 -74 -53 -127t-127 -53q-76 0 -129 53t-53 127zM387 1776q0 14 2 22q51 207 258 207q41 0 81 -10.5t91 -30.5q88 -31 127 -31q59 0 78 39q12 25 38.5 40t57.5 15q45 0 75 -30.5t30 -73.5q0 -14 -2 -23q-49 -207 -248 -206q-41 0 -85 11t-104 32 q-88 33 -125 32q-31 0 -49 -9t-30 -32q-12 -25 -38 -40t-55 -15q-43 0 -72.5 31t-29.5 72z" />
<glyph unicode="&#xd2;" horiz-adv-x="1640" d="M61 774q0 242 92.5 423t264.5 281.5t405 100.5q236 0 407 -99.5t261 -281.5t90 -424q0 -244 -91 -426t-263 -281.5t-408 -99.5q-235 0 -406 99.5t-261.5 281.5t-90.5 426zM475 774q0 -250 94.5 -372.5t251.5 -122.5q158 0 252 122.5t94 372.5t-94 372t-252 122t-252 -122 t-94 -372zM504 1958q0 29 26.5 47t71.5 18h102q47 0 80 -18.5t55 -58.5l76 -130q20 -35 21 -67q0 -31 -22.5 -49.5t-63.5 -18.5h-60q-45 0 -76.5 15.5t-60.5 50.5l-117 139q-33 39 -32 72z" />
<glyph unicode="&#xd3;" horiz-adv-x="1640" d="M61 774q0 242 92.5 423t264.5 281.5t405 100.5q236 0 407 -99.5t261 -281.5t90 -424q0 -244 -91 -426t-263 -281.5t-408 -99.5q-235 0 -406 99.5t-261.5 281.5t-90.5 426zM475 774q0 -250 94.5 -372.5t251.5 -122.5q158 0 252 122.5t94 372.5t-94 372t-252 122t-252 -122 t-94 -372zM698 1753q0 31 20 63l76 130q23 41 55.5 59t79.5 18h103q45 0 71.5 -18.5t26.5 -46.5q0 -33 -33 -72l-116 -139q-29 -35 -61 -50.5t-77 -15.5h-47q-47 0 -72.5 19.5t-25.5 52.5z" />
<glyph unicode="&#xd4;" horiz-adv-x="1640" d="M61 774q0 242 92.5 423t264.5 281.5t405 100.5q236 0 407 -99.5t261 -281.5t90 -424q0 -244 -91 -426t-263 -281.5t-408 -99.5q-235 0 -406 99.5t-261.5 281.5t-90.5 426zM475 774q0 -250 94.5 -372.5t251.5 -122.5q158 0 252 122.5t94 372.5t-94 372t-252 122t-252 -122 t-94 -372zM482 1847q0 33 18.5 58.5t48.5 37.5l240 91q14 6 33 6q16 0 32 -6l240 -91q31 -12 49.5 -37.5t18.5 -58.5q0 -55 -35 -90t-84 -35q-25 0 -51 11l-140 51q-16 6 -32 6q-14 0 -29 -6l-137 -47q-31 -10 -53 -11q-51 0 -85 34t-34 87z" />
<glyph unicode="&#xd5;" horiz-adv-x="1640" d="M61 774q0 242 92.5 423t264.5 281.5t405 100.5q236 0 407 -99.5t261 -281.5t90 -424q0 -244 -91 -426t-263 -281.5t-408 -99.5q-235 0 -406 99.5t-261.5 281.5t-90.5 426zM403 1776q0 14 2 22q51 207 258 207q41 0 81 -10.5t91 -30.5q88 -31 127 -31q59 0 78 39 q12 25 38.5 40t57.5 15q45 0 75 -30.5t30 -73.5q0 -14 -2 -23q-49 -207 -248 -206q-41 0 -85 11t-104 32q-88 33 -125 32q-31 0 -49 -9t-30 -32q-12 -25 -38 -40t-55 -15q-43 0 -72.5 31t-29.5 72zM475 774q0 -250 94.5 -372.5t251.5 -122.5q158 0 252 122.5t94 372.5 t-94 372t-252 122t-252 -122t-94 -372z" />
<glyph unicode="&#xd6;" horiz-adv-x="1640" d="M61 774q0 242 92.5 423t264.5 281.5t405 100.5q236 0 407 -99.5t261 -281.5t90 -424q0 -244 -91 -426t-263 -281.5t-408 -99.5q-235 0 -406 99.5t-261.5 281.5t-90.5 426zM397 1866q0 66 46.5 111.5t111.5 45.5h47q63 0 110.5 -46t47.5 -111q0 -66 -46 -113t-112 -47h-47 q-65 0 -111.5 47t-46.5 113zM475 774q0 -250 94.5 -372.5t251.5 -122.5q158 0 252 122.5t94 372.5t-94 372t-252 122t-252 -122t-94 -372zM883 1864q0 66 46 112.5t112 46.5h47q63 0 110 -46t47 -111q0 -66 -46 -113t-111 -47h-47q-66 0 -112 47t-46 111z" />
<glyph unicode="&#xd9;" horiz-adv-x="1501" d="M106 588v778q0 82 58.5 139.5t140.5 57.5t139.5 -57.5t57.5 -139.5v-791q0 -135 60.5 -209.5t191.5 -74.5q127 0 188.5 76.5t61.5 207.5v793q0 80 57 137.5t137 57.5q82 0 139.5 -57.5t57.5 -137.5v-780q0 -289 -151.5 -456t-487.5 -167q-348 0 -499 165t-151 458z M435 1958q0 29 26.5 47t71.5 18h102q47 0 80 -18.5t55 -58.5l76 -130q20 -35 21 -67q0 -31 -22.5 -49.5t-63.5 -18.5h-60q-45 0 -76.5 15.5t-60.5 50.5l-117 139q-33 39 -32 72z" />
<glyph unicode="&#xda;" horiz-adv-x="1501" d="M106 588v778q0 82 58.5 139.5t140.5 57.5t139.5 -57.5t57.5 -139.5v-791q0 -135 60.5 -209.5t191.5 -74.5q127 0 188.5 76.5t61.5 207.5v793q0 80 57 137.5t137 57.5q82 0 139.5 -57.5t57.5 -137.5v-780q0 -289 -151.5 -456t-487.5 -167q-348 0 -499 165t-151 458z M629 1753q0 31 20 63l76 130q23 41 55.5 59t79.5 18h103q45 0 71.5 -18.5t26.5 -46.5q0 -33 -33 -72l-116 -139q-29 -35 -61 -50.5t-77 -15.5h-47q-47 0 -72.5 19.5t-25.5 52.5z" />
<glyph unicode="&#xdb;" horiz-adv-x="1501" d="M106 588v778q0 82 58.5 139.5t140.5 57.5t139.5 -57.5t57.5 -139.5v-791q0 -135 60.5 -209.5t191.5 -74.5q127 0 188.5 76.5t61.5 207.5v793q0 80 57 137.5t137 57.5q82 0 139.5 -57.5t57.5 -137.5v-780q0 -289 -151.5 -456t-487.5 -167q-348 0 -499 165t-151 458z M412 1847q0 33 18.5 58.5t48.5 37.5l240 91q14 6 33 6q16 0 32 -6l240 -91q31 -12 49.5 -37.5t18.5 -58.5q0 -55 -35 -90t-84 -35q-25 0 -51 11l-140 51q-16 6 -32 6q-14 0 -29 -6l-137 -47q-31 -10 -53 -11q-51 0 -85 34t-34 87z" />
<glyph unicode="&#xdc;" horiz-adv-x="1501" d="M106 588v778q0 82 58.5 139.5t140.5 57.5t139.5 -57.5t57.5 -139.5v-791q0 -135 60.5 -209.5t191.5 -74.5q127 0 188.5 76.5t61.5 207.5v793q0 80 57 137.5t137 57.5q82 0 139.5 -57.5t57.5 -137.5v-780q0 -289 -151.5 -456t-487.5 -167q-348 0 -499 165t-151 458z M327 1866q0 66 46.5 111.5t111.5 45.5h47q63 0 110.5 -46t47.5 -111q0 -66 -46 -113t-112 -47h-47q-65 0 -111.5 47t-46.5 113zM813 1864q0 66 46 112.5t112 46.5h47q63 0 110 -46t47 -111q0 -66 -46 -113t-111 -47h-47q-66 0 -112 47t-46 111z" />
<glyph unicode="&#xdd;" horiz-adv-x="1241" d="M25 1384q0 74 52 126.5t128 52.5q49 0 91 -26t64 -69l277 -503l262 508q20 41 60 65.5t90 24.5q70 0 119 -49.5t49 -118.5q0 -43 -23 -82l-371 -654v-479q0 -82 -57 -139t-139 -57t-139.5 57t-57.5 139v461l-381 651q-25 45 -24 92zM492 1753q0 31 20 63l76 130 q23 41 55.5 59t79.5 18h103q45 0 71.5 -18.5t26.5 -46.5q0 -33 -33 -72l-116 -139q-29 -35 -61 -50.5t-77 -15.5h-47q-47 0 -72.5 19.5t-25.5 52.5z" />
<glyph unicode="&#xdf;" horiz-adv-x="1673" d="M102 174v733q0 231 61.5 380t199 222.5t364.5 73.5q250 0 414 -68.5t164 -252.5q0 -102 -48.5 -171t-134.5 -145q-55 -47 -79.5 -76.5t-24.5 -64.5q0 -33 28.5 -51.5t98.5 -32.5l160 -33q186 -39 268 -116.5t82 -215.5q0 -180 -132 -285.5t-399 -105.5q-184 0 -312 53.5 t-128 169.5q0 68 45 118t117 50q41 0 69.5 -17t57.5 -50q4 -6 24.5 -28.5t52 -33t83.5 -10.5q158 0 157 98q0 33 -23.5 53.5t-95.5 34.5l-139 29q-201 41 -287 117t-86 203q0 84 34 139t102 125q55 55 82.5 97t27.5 99q0 88 -164 88q-125 0 -191.5 -72.5t-66.5 -275.5v-778 q0 -78 -56 -134t-134 -56t-134.5 56t-56.5 134z" />
<glyph unicode="&#xe0;" horiz-adv-x="1181" d="M18 313q0 217 164 290t414 73q47 0 70 -2l69 -2q0 70 -10 111.5t-44 66t-101 24.5q-94 0 -140 -59q-51 -70 -125 -70q-68 0 -115.5 48.5t-47.5 117.5q0 41 18 77t53 59q76 49 169 73.5t192 24.5q254 0 386 -108.5t132 -356.5l-2 -291q0 -76 2 -113l2 -114 q0 -72 -52.5 -125t-125.5 -53q-68 0 -117 43t-59 108q-63 -88 -148.5 -125t-202.5 -37q-104 0 -191 40t-138.5 117t-51.5 183zM271 1528q0 29 26.5 47t71.5 18h102q47 0 80 -18.5t55 -58.5l76 -130q20 -35 21 -67q0 -31 -22.5 -49.5t-63.5 -18.5h-60q-45 0 -76.5 15.5 t-60.5 50.5l-117 139q-33 39 -32 72zM391 336q0 -55 38 -87t95 -32q101 0 157 67.5t56 170.5v16l-121 2q-225 0 -225 -137z" />
<glyph unicode="&#xe1;" horiz-adv-x="1181" d="M18 313q0 217 164 290t414 73q47 0 70 -2l69 -2q0 70 -10 111.5t-44 66t-101 24.5q-94 0 -140 -59q-51 -70 -125 -70q-68 0 -115.5 48.5t-47.5 117.5q0 41 18 77t53 59q76 49 169 73.5t192 24.5q254 0 386 -108.5t132 -356.5l-2 -291q0 -76 2 -113l2 -114 q0 -72 -52.5 -125t-125.5 -53q-68 0 -117 43t-59 108q-63 -88 -148.5 -125t-202.5 -37q-104 0 -191 40t-138.5 117t-51.5 183zM391 336q0 -55 38 -87t95 -32q101 0 157 67.5t56 170.5v16l-121 2q-225 0 -225 -137zM465 1323q0 31 20 63l76 130q23 41 55.5 59t79.5 18h103 q45 0 71.5 -18.5t26.5 -46.5q0 -33 -33 -72l-116 -139q-29 -35 -61 -50.5t-77 -15.5h-47q-47 0 -72.5 19.5t-25.5 52.5z" />
<glyph unicode="&#xe2;" horiz-adv-x="1181" d="M18 313q0 217 164 290t414 73q47 0 70 -2l69 -2q0 70 -10 111.5t-44 66t-101 24.5q-94 0 -140 -59q-51 -70 -125 -70q-68 0 -115.5 48.5t-47.5 117.5q0 41 18 77t53 59q76 49 169 73.5t192 24.5q254 0 386 -108.5t132 -356.5l-2 -291q0 -76 2 -113l2 -114 q0 -72 -52.5 -125t-125.5 -53q-68 0 -117 43t-59 108q-63 -88 -148.5 -125t-202.5 -37q-104 0 -191 40t-138.5 117t-51.5 183zM248 1417q0 33 18.5 58.5t48.5 37.5l240 91q14 6 33 6q16 0 32 -6l240 -91q31 -12 49.5 -37.5t18.5 -58.5q0 -55 -35 -90t-84 -35q-25 0 -51 11 l-140 51q-16 6 -32 6q-14 0 -29 -6l-137 -47q-31 -10 -53 -11q-51 0 -85 34t-34 87zM391 336q0 -55 38 -87t95 -32q101 0 157 67.5t56 170.5v16l-121 2q-225 0 -225 -137z" />
<glyph unicode="&#xe3;" horiz-adv-x="1181" d="M18 313q0 217 164 290t414 73q47 0 70 -2l69 -2q0 70 -10 111.5t-44 66t-101 24.5q-94 0 -140 -59q-51 -70 -125 -70q-68 0 -115.5 48.5t-47.5 117.5q0 41 18 77t53 59q76 49 169 73.5t192 24.5q254 0 386 -108.5t132 -356.5l-2 -291q0 -76 2 -113l2 -114 q0 -72 -52.5 -125t-125.5 -53q-68 0 -117 43t-59 108q-63 -88 -148.5 -125t-202.5 -37q-104 0 -191 40t-138.5 117t-51.5 183zM170 1346q0 14 2 22q51 207 258 207q41 0 81 -10.5t91 -30.5q88 -31 127 -31q59 0 78 39q12 25 38.5 40t57.5 15q45 0 75 -30.5t30 -73.5 q0 -14 -2 -23q-49 -207 -248 -206q-41 0 -85 11t-104 32q-88 33 -125 32q-31 0 -49 -9t-30 -32q-12 -25 -38 -40t-55 -15q-43 0 -72.5 31t-29.5 72zM391 336q0 -55 38 -87t95 -32q101 0 157 67.5t56 170.5v16l-121 2q-225 0 -225 -137z" />
<glyph unicode="&#xe4;" horiz-adv-x="1181" d="M18 313q0 217 164 290t414 73q47 0 70 -2l69 -2q0 70 -10 111.5t-44 66t-101 24.5q-94 0 -140 -59q-51 -70 -125 -70q-68 0 -115.5 48.5t-47.5 117.5q0 41 18 77t53 59q76 49 169 73.5t192 24.5q254 0 386 -108.5t132 -356.5l-2 -291q0 -76 2 -113l2 -114 q0 -72 -52.5 -125t-125.5 -53q-68 0 -117 43t-59 108q-63 -88 -148.5 -125t-202.5 -37q-104 0 -191 40t-138.5 117t-51.5 183zM163 1436q0 66 46.5 111.5t111.5 45.5h47q63 0 110.5 -46t47.5 -111q0 -66 -46 -113t-112 -47h-47q-65 0 -111.5 47t-46.5 113zM391 336 q0 -55 38 -87t95 -32q101 0 157 67.5t56 170.5v16l-121 2q-225 0 -225 -137zM649 1434q0 66 46 112.5t112 46.5h47q63 0 110 -46t47 -111q0 -66 -46 -113t-111 -47h-47q-66 0 -112 47t-46 111z" />
<glyph unicode="&#xe5;" horiz-adv-x="1181" d="M18 313q0 217 164 290t414 73q47 0 70 -2l69 -2q0 70 -10 111.5t-44 66t-101 24.5q-94 0 -140 -59q-51 -70 -125 -70q-68 0 -115.5 48.5t-47.5 117.5q0 41 18 77t53 59q76 49 169 73.5t192 24.5q254 0 386 -108.5t132 -356.5l-2 -291q0 -76 2 -113l2 -114 q0 -72 -52.5 -125t-125.5 -53q-68 0 -117 43t-59 108q-63 -88 -148.5 -125t-202.5 -37q-104 0 -191 40t-138.5 117t-51.5 183zM370 1417q0 90 63.5 152.5t154.5 62.5q88 0 151.5 -62.5t63.5 -152.5t-62.5 -153.5t-152.5 -63.5q-91 0 -154.5 63.5t-63.5 153.5zM391 336 q0 -55 38 -87t95 -32q101 0 157 67.5t56 170.5v16l-121 2q-225 0 -225 -137zM467 1417q0 -51 34.5 -86t86.5 -35q49 0 83.5 35t34.5 86q0 49 -34.5 84t-83.5 35q-51 0 -86 -35t-35 -84z" />
<glyph unicode="&#xe6;" horiz-adv-x="1878" d="M18 328q0 344 557 344h160v45q0 158 -155 157q-53 0 -84 -16t-54 -43q-27 -31 -54.5 -49t-72.5 -18q-70 0 -117.5 48t-47.5 117q0 78 71 134q59 45 154.5 71.5t208.5 26.5q242 0 356 -137q59 63 154.5 100t214.5 37q180 0 304 -81t184.5 -202t60.5 -239q0 -90 -40 -128 t-128 -38h-600q0 -96 64.5 -157.5t162.5 -61.5q55 0 93 18t71 51q25 25 50 39t60 14q63 0 108.5 -46t45.5 -111q0 -72 -62 -123q-63 -53 -166.5 -82t-216.5 -29q-295 0 -448 209q-143 -209 -414 -209q-186 0 -303 96.5t-117 262.5zM391 338q0 -55 37 -90t98 -35 q86 0 150.5 63.5t64.5 178.5v14h-36l-89 2q-225 0 -225 -133zM1087 680h404q-4 98 -58.5 155.5t-140.5 57.5t-140 -57.5t-65 -155.5z" />
<glyph unicode="&#xe7;" horiz-adv-x="1118" d="M41 555q0 166 68.5 300t201.5 212t322 78q236 0 385 -129q25 -23 38 -58.5t13 -74.5q0 -70 -49 -119t-119 -49q-47 0 -86 23.5t-61 60.5q-41 74 -136 73q-90 0 -143 -77.5t-53 -237.5q0 -162 54 -238.5t142 -76.5q94 0 144 84q25 43 62.5 67.5t86.5 24.5q72 0 124 -51.5 t52 -124.5q0 -74 -49 -123q-143 -147 -413 -150l-39 -69l6 -6q41 10 84 10q94 0 148.5 -50.5t54.5 -134.5q0 -94 -70 -144t-186 -50q-63 0 -115.5 13t-83.5 36q-35 27 -35 59q0 31 21.5 51.5t48.5 20.5q25 0 43 -14q53 -37 104 -37q78 0 78 61q0 31 -16.5 46.5t-46.5 15.5 q-31 0 -70 6t-59.5 28.5t-20.5 55.5q0 29 16 61l23 47q-233 29 -351 180.5t-118 399.5z" />
<glyph unicode="&#xe8;" horiz-adv-x="1193" d="M37 555q0 170 70.5 304t201.5 210t305 76q176 0 303 -75t192 -195.5t65 -251.5q0 -84 -39 -125t-129 -41h-605q10 -100 72 -159.5t158 -59.5q57 0 96 19t70 50q29 27 52 40t58 13q63 0 108.5 -46t45.5 -111q0 -72 -62 -123q-55 -47 -157.5 -79t-218.5 -32 q-168 0 -301.5 72t-209 205t-75.5 309zM285 1528q0 29 26.5 47t71.5 18h102q47 0 80 -18.5t55 -58.5l76 -130q20 -35 21 -67q0 -31 -22.5 -49.5t-63.5 -18.5h-60q-45 0 -76.5 15.5t-60.5 50.5l-117 139q-33 39 -32 72zM403 680h404q-4 98 -58.5 155.5t-140.5 57.5 t-140 -57.5t-65 -155.5z" />
<glyph unicode="&#xe9;" horiz-adv-x="1193" d="M37 555q0 170 70.5 304t201.5 210t305 76q176 0 303 -75t192 -195.5t65 -251.5q0 -84 -39 -125t-129 -41h-605q10 -100 72 -159.5t158 -59.5q57 0 96 19t70 50q29 27 52 40t58 13q63 0 108.5 -46t45.5 -111q0 -72 -62 -123q-55 -47 -157.5 -79t-218.5 -32 q-168 0 -301.5 72t-209 205t-75.5 309zM403 680h404q-4 98 -58.5 155.5t-140.5 57.5t-140 -57.5t-65 -155.5zM479 1323q0 31 20 63l76 130q23 41 55.5 59t79.5 18h103q45 0 71.5 -18.5t26.5 -46.5q0 -33 -33 -72l-116 -139q-29 -35 -61 -50.5t-77 -15.5h-47 q-47 0 -72.5 19.5t-25.5 52.5z" />
<glyph unicode="&#xea;" horiz-adv-x="1193" d="M37 555q0 170 70.5 304t201.5 210t305 76q176 0 303 -75t192 -195.5t65 -251.5q0 -84 -39 -125t-129 -41h-605q10 -100 72 -159.5t158 -59.5q57 0 96 19t70 50q29 27 52 40t58 13q63 0 108.5 -46t45.5 -111q0 -72 -62 -123q-55 -47 -157.5 -79t-218.5 -32 q-168 0 -301.5 72t-209 205t-75.5 309zM262 1417q0 33 18.5 58.5t48.5 37.5l240 91q14 6 33 6q16 0 32 -6l240 -91q31 -12 49.5 -37.5t18.5 -58.5q0 -55 -35 -90t-84 -35q-25 0 -51 11l-140 51q-16 6 -32 6q-14 0 -29 -6l-137 -47q-31 -10 -53 -11q-51 0 -85 34t-34 87z M403 680h404q-4 98 -58.5 155.5t-140.5 57.5t-140 -57.5t-65 -155.5z" />
<glyph unicode="&#xeb;" horiz-adv-x="1193" d="M37 555q0 170 70.5 304t201.5 210t305 76q176 0 303 -75t192 -195.5t65 -251.5q0 -84 -39 -125t-129 -41h-605q10 -100 72 -159.5t158 -59.5q57 0 96 19t70 50q29 27 52 40t58 13q63 0 108.5 -46t45.5 -111q0 -72 -62 -123q-55 -47 -157.5 -79t-218.5 -32 q-168 0 -301.5 72t-209 205t-75.5 309zM178 1436q0 66 46.5 111.5t111.5 45.5h47q63 0 110.5 -46t47.5 -111q0 -66 -46 -113t-112 -47h-47q-65 0 -111.5 47t-46.5 113zM403 680h404q-4 98 -58.5 155.5t-140.5 57.5t-140 -57.5t-65 -155.5zM664 1434q0 66 46 112.5t112 46.5 h47q63 0 110 -46t47 -111q0 -66 -46 -113t-111 -47h-47q-66 0 -112 47t-46 111z" />
<glyph unicode="&#xec;" horiz-adv-x="571" d="M-32 1528q0 29 26.5 47t71.5 18h102q47 0 80 -18.5t55 -58.5l76 -130q20 -35 21 -67q0 -31 -22.5 -49.5t-63.5 -18.5h-60q-45 0 -76.5 15.5t-60.5 50.5l-117 139q-33 39 -32 72zM94 174v768q0 78 56.5 134.5t134.5 56.5t134 -56.5t56 -134.5v-768q0 -78 -56.5 -134 t-133.5 -56q-78 0 -134.5 56t-56.5 134z" />
<glyph unicode="&#xed;" horiz-adv-x="571" d="M94 174v768q0 78 56.5 134.5t134.5 56.5t134 -56.5t56 -134.5v-768q0 -78 -56.5 -134t-133.5 -56q-78 0 -134.5 56t-56.5 134zM162 1323q0 31 20 63l76 130q23 41 55.5 59t79.5 18h103q45 0 71.5 -18.5t26.5 -46.5q0 -33 -33 -72l-116 -139q-29 -35 -61 -50.5t-77 -15.5 h-47q-47 0 -72.5 19.5t-25.5 52.5z" />
<glyph unicode="&#xee;" horiz-adv-x="571" d="M-55 1417q0 33 18.5 58.5t48.5 37.5l240 91q14 6 33 6q16 0 32 -6l240 -91q31 -12 49.5 -37.5t18.5 -58.5q0 -55 -35 -90t-84 -35q-25 0 -51 11l-140 51q-16 6 -32 6q-14 0 -29 -6l-137 -47q-31 -10 -53 -11q-51 0 -85 34t-34 87zM94 174v768q0 78 56.5 134.5t134.5 56.5 t134 -56.5t56 -134.5v-768q0 -78 -56.5 -134t-133.5 -56q-78 0 -134.5 56t-56.5 134z" />
<glyph unicode="&#xef;" horiz-adv-x="571" d="M-140 1436q0 66 46.5 111.5t111.5 45.5h47q63 0 110.5 -46t47.5 -111q0 -66 -46 -113t-112 -47h-47q-65 0 -111.5 47t-46.5 113zM94 174v768q0 78 56.5 134.5t134.5 56.5t134 -56.5t56 -134.5v-768q0 -78 -56.5 -134t-133.5 -56q-78 0 -134.5 56t-56.5 134zM346 1434 q0 66 46 112.5t112 46.5h47q63 0 110 -46t47 -111q0 -66 -46 -113t-111 -47h-47q-66 0 -112 47t-46 111z" />
<glyph unicode="&#xf1;" horiz-adv-x="1286" d="M96 174v782q0 72 52.5 124.5t123.5 52.5q74 0 126.5 -52.5t52.5 -124.5v-28q47 92 137 151.5t223 59.5q205 0 299 -116t94 -318v-531q0 -78 -56 -134t-134 -56t-134.5 56t-56.5 134v471q0 115 -49 160t-112 45q-76 0 -130.5 -54.5t-54.5 -197.5v-424q0 -78 -56 -134 t-134 -56t-134.5 56t-56.5 134zM227 1346q0 14 2 22q51 207 258 207q41 0 81 -10.5t91 -30.5q88 -31 127 -31q59 0 78 39q12 25 38.5 40t57.5 15q45 0 75 -30.5t30 -73.5q0 -14 -2 -23q-49 -207 -248 -206q-41 0 -85 11t-104 32q-88 33 -125 32q-31 0 -49 -9t-30 -32 q-12 -25 -38 -40t-55 -15q-43 0 -72.5 31t-29.5 72z" />
<glyph unicode="&#xf2;" horiz-adv-x="1253" d="M39 555q0 172 69.5 305t202.5 209t318 76q184 0 317 -76t200.5 -209t67.5 -301q0 -170 -70.5 -304t-204.5 -210t-318 -76q-185 0 -316 76t-198.5 209t-67.5 301zM310 1528q0 29 26.5 47t71.5 18h102q47 0 80 -18.5t55 -58.5l76 -130q20 -35 21 -67q0 -31 -22.5 -49.5 t-63.5 -18.5h-60q-45 0 -76.5 15.5t-60.5 50.5l-117 139q-33 39 -32 72zM420 559q0 -150 52 -233.5t155 -83.5q102 0 153 84t51 231t-51 231t-155 84q-102 0 -153.5 -82.5t-51.5 -230.5z" />
<glyph unicode="&#xf3;" horiz-adv-x="1253" d="M39 555q0 172 69.5 305t202.5 209t318 76q184 0 317 -76t200.5 -209t67.5 -301q0 -170 -70.5 -304t-204.5 -210t-318 -76q-185 0 -316 76t-198.5 209t-67.5 301zM420 559q0 -150 52 -233.5t155 -83.5q102 0 153 84t51 231t-51 231t-155 84q-102 0 -153.5 -82.5 t-51.5 -230.5zM504 1323q0 31 20 63l76 130q23 41 55.5 59t79.5 18h103q45 0 71.5 -18.5t26.5 -46.5q0 -33 -33 -72l-116 -139q-29 -35 -61 -50.5t-77 -15.5h-47q-47 0 -72.5 19.5t-25.5 52.5z" />
<glyph unicode="&#xf4;" horiz-adv-x="1253" d="M39 555q0 172 69.5 305t202.5 209t318 76q184 0 317 -76t200.5 -209t67.5 -301q0 -170 -70.5 -304t-204.5 -210t-318 -76q-185 0 -316 76t-198.5 209t-67.5 301zM287 1417q0 33 18.5 58.5t48.5 37.5l240 91q14 6 33 6q16 0 32 -6l240 -91q31 -12 49.5 -37.5t18.5 -58.5 q0 -55 -35 -90t-84 -35q-25 0 -51 11l-140 51q-16 6 -32 6q-14 0 -29 -6l-137 -47q-31 -10 -53 -11q-51 0 -85 34t-34 87zM420 559q0 -150 52 -233.5t155 -83.5q102 0 153 84t51 231t-51 231t-155 84q-102 0 -153.5 -82.5t-51.5 -230.5z" />
<glyph unicode="&#xf5;" horiz-adv-x="1253" d="M39 555q0 172 69.5 305t202.5 209t318 76q184 0 317 -76t200.5 -209t67.5 -301q0 -170 -70.5 -304t-204.5 -210t-318 -76q-185 0 -316 76t-198.5 209t-67.5 301zM209 1346q0 14 2 22q51 207 258 207q41 0 81 -10.5t91 -30.5q88 -31 127 -31q59 0 78 39q12 25 38.5 40 t57.5 15q45 0 75 -30.5t30 -73.5q0 -14 -2 -23q-49 -207 -248 -206q-41 0 -85 11t-104 32q-88 33 -125 32q-31 0 -49 -9t-30 -32q-12 -25 -38 -40t-55 -15q-43 0 -72.5 31t-29.5 72zM420 559q0 -150 52 -233.5t155 -83.5q102 0 153 84t51 231t-51 231t-155 84 q-102 0 -153.5 -82.5t-51.5 -230.5z" />
<glyph unicode="&#xf6;" horiz-adv-x="1253" d="M39 555q0 172 69.5 305t202.5 209t318 76q184 0 317 -76t200.5 -209t67.5 -301q0 -170 -70.5 -304t-204.5 -210t-318 -76q-185 0 -316 76t-198.5 209t-67.5 301zM202 1436q0 66 46.5 111.5t111.5 45.5h47q63 0 110.5 -46t47.5 -111q0 -66 -46 -113t-112 -47h-47 q-65 0 -111.5 47t-46.5 113zM420 559q0 -150 52 -233.5t155 -83.5q102 0 153 84t51 231t-51 231t-155 84q-102 0 -153.5 -82.5t-51.5 -230.5zM688 1434q0 66 46 112.5t112 46.5h47q63 0 110 -46t47 -111q0 -66 -46 -113t-111 -47h-47q-66 0 -112 47t-46 111z" />
<glyph unicode="&#xf9;" horiz-adv-x="1265" d="M82 408v534q0 78 56.5 134.5t133.5 56.5q78 0 134.5 -56.5t56.5 -134.5v-475q0 -115 46 -161t105 -46q80 0 127 63.5t47 184.5v434q0 78 56.5 134.5t134.5 56.5t134 -56.5t56 -134.5v-782q0 -72 -52 -124t-126 -52q-72 0 -124 52t-52 124v43q-47 -102 -130 -166t-210 -64 q-209 0 -301 118t-92 317zM314 1528q0 29 26.5 47t71.5 18h102q47 0 80 -18.5t55 -58.5l76 -130q20 -35 21 -67q0 -31 -22.5 -49.5t-63.5 -18.5h-60q-45 0 -76.5 15.5t-60.5 50.5l-117 139q-33 39 -32 72z" />
<glyph unicode="&#xfa;" horiz-adv-x="1265" d="M82 408v534q0 78 56.5 134.5t133.5 56.5q78 0 134.5 -56.5t56.5 -134.5v-475q0 -115 46 -161t105 -46q80 0 127 63.5t47 184.5v434q0 78 56.5 134.5t134.5 56.5t134 -56.5t56 -134.5v-782q0 -72 -52 -124t-126 -52q-72 0 -124 52t-52 124v43q-47 -102 -130 -166t-210 -64 q-209 0 -301 118t-92 317zM508 1323q0 31 20 63l76 130q23 41 55.5 59t79.5 18h103q45 0 71.5 -18.5t26.5 -46.5q0 -33 -33 -72l-116 -139q-29 -35 -61 -50.5t-77 -15.5h-47q-47 0 -72.5 19.5t-25.5 52.5z" />
<glyph unicode="&#xfb;" horiz-adv-x="1265" d="M82 408v534q0 78 56.5 134.5t133.5 56.5q78 0 134.5 -56.5t56.5 -134.5v-475q0 -115 46 -161t105 -46q80 0 127 63.5t47 184.5v434q0 78 56.5 134.5t134.5 56.5t134 -56.5t56 -134.5v-782q0 -72 -52 -124t-126 -52q-72 0 -124 52t-52 124v43q-47 -102 -130 -166t-210 -64 q-209 0 -301 118t-92 317zM291 1417q0 33 18.5 58.5t48.5 37.5l240 91q14 6 33 6q16 0 32 -6l240 -91q31 -12 49.5 -37.5t18.5 -58.5q0 -55 -35 -90t-84 -35q-25 0 -51 11l-140 51q-16 6 -32 6q-14 0 -29 -6l-137 -47q-31 -10 -53 -11q-51 0 -85 34t-34 87z" />
<glyph unicode="&#xfc;" horiz-adv-x="1265" d="M82 408v534q0 78 56.5 134.5t133.5 56.5q78 0 134.5 -56.5t56.5 -134.5v-475q0 -115 46 -161t105 -46q80 0 127 63.5t47 184.5v434q0 78 56.5 134.5t134.5 56.5t134 -56.5t56 -134.5v-782q0 -72 -52 -124t-126 -52q-72 0 -124 52t-52 124v43q-47 -102 -130 -166t-210 -64 q-209 0 -301 118t-92 317zM206 1436q0 66 46.5 111.5t111.5 45.5h47q63 0 110.5 -46t47.5 -111q0 -66 -46 -113t-112 -47h-47q-65 0 -111.5 47t-46.5 113zM692 1434q0 66 46 112.5t112 46.5h47q63 0 110 -46t47 -111q0 -66 -46 -113t-111 -47h-47q-66 0 -112 47t-46 111z " />
<glyph unicode="&#xfd;" horiz-adv-x="1099" d="M14 948q0 78 54.5 131.5t130.5 53.5q59 0 107 -35t67 -90l137 -406q29 -86 39 -151q4 -25 8 -70h12q2 33 13 70q18 88 39 151l131 412q16 51 61 85t102 34q72 0 121 -50.5t49 -121.5q0 -29 -10 -60l-471 -1259q-18 -51 -62 -82t-100 -31q-69 0 -120.5 50t-51.5 122 q0 25 13 61l82 222l-338 901q-12 29 -13 63zM424 1323q0 31 20 63l76 130q23 41 55.5 59t79.5 18h103q45 0 71.5 -18.5t26.5 -46.5q0 -33 -33 -72l-116 -139q-29 -35 -61 -50.5t-77 -15.5h-47q-47 0 -72.5 19.5t-25.5 52.5z" />
<glyph unicode="&#xff;" horiz-adv-x="1099" d="M14 948q0 78 54.5 131.5t130.5 53.5q59 0 107 -35t67 -90l137 -406q29 -86 39 -151q4 -25 8 -70h12q2 33 13 70q18 88 39 151l131 412q16 51 61 85t102 34q72 0 121 -50.5t49 -121.5q0 -29 -10 -60l-471 -1259q-18 -51 -62 -82t-100 -31q-69 0 -120.5 50t-51.5 122 q0 25 13 61l82 222l-338 901q-12 29 -13 63zM122 1436q0 66 46.5 111.5t111.5 45.5h47q63 0 110.5 -46t47.5 -111q0 -66 -46 -113t-112 -47h-47q-65 0 -111.5 47t-46.5 113zM608 1434q0 66 46 112.5t112 46.5h47q63 0 110 -46t47 -111q0 -66 -46 -113t-111 -47h-47 q-66 0 -112 47t-46 111z" />
<glyph unicode="&#x152;" horiz-adv-x="2316" d="M61 774q0 240 88.5 421t255 279.5t396.5 98.5q119 0 215 -40t160 -110q0 59 45 91t129 32h733q66 0 112 -47t46 -113q0 -63 -46.5 -110t-111.5 -47h-539v-307h451q61 0 104 -43t43 -107q0 -61 -43 -104t-104 -43h-451v-308h580q66 0 111.5 -46t45.5 -111q0 -66 -46 -113 t-111 -47h-774q-84 0 -129 35t-45 100q-145 -162 -406 -162q-211 0 -371.5 98.5t-249 279.5t-88.5 423zM471 772q0 -252 96.5 -376t253.5 -124q158 0 254 124t96 378t-96 378t-254 124t-254 -125t-96 -379z" />
<glyph unicode="&#x153;" horiz-adv-x="1959" d="M39 557q0 172 68.5 304t201.5 208t322 76q123 0 219 -47t158 -140h4q70 94 161 140.5t218 46.5q246 0 385 -133t163 -377l3 -25q0 -72 -46.5 -111.5t-126.5 -39.5h-587q6 -100 59 -160.5t139 -60.5q59 0 97.5 14t64.5 47q53 63 119 63t114 -47t48 -114q0 -39 -18.5 -74 t-49.5 -57q-145 -100 -377 -101q-139 0 -229 40t-141 122h-4q-129 -162 -383 -162q-185 0 -316 76t-198.5 209t-67.5 303zM420 557q0 -147 52 -231t155 -84q102 0 153 84t51 231t-51 231t-153 84q-104 0 -155.5 -82.5t-51.5 -232.5zM1182 672h397q-4 100 -56.5 160.5 t-142.5 60.5q-86 0 -139 -60.5t-59 -160.5z" />
<glyph unicode="&#x178;" horiz-adv-x="1241" d="M25 1384q0 74 52 126.5t128 52.5q49 0 91 -26t64 -69l277 -503l262 508q20 41 60 65.5t90 24.5q70 0 119 -49.5t49 -118.5q0 -43 -23 -82l-371 -654v-479q0 -82 -57 -139t-139 -57t-139.5 57t-57.5 139v461l-381 651q-25 45 -24 92zM190 1866q0 66 46.5 111.5t111.5 45.5 h47q63 0 110.5 -46t47.5 -111q0 -66 -46 -113t-112 -47h-47q-65 0 -111.5 47t-46.5 113zM676 1864q0 66 46 112.5t112 46.5h47q63 0 110 -46t47 -111q0 -66 -46 -113t-111 -47h-47q-66 0 -112 47t-46 111z" />
<glyph unicode="&#x2c6;" horiz-adv-x="792" d="M55 1417q0 33 18.5 58.5t49.5 37.5l239 91q14 6 33 6q18 0 33 -6l240 -91q31 -12 49 -37.5t18 -58.5q0 -55 -34.5 -90t-84.5 -35q-25 0 -51 11l-139 51q-14 6 -33 6q-12 0 -28 -6l-138 -47q-31 -10 -53 -11q-51 0 -85 34t-34 87z" />
<glyph unicode="&#x2dc;" horiz-adv-x="954" d="M57 1346q0 14 2 22q51 207 258 207q41 0 81 -10.5t91 -30.5q88 -31 127 -31q59 0 78 39q12 25 39 40t58 15q45 0 74.5 -30.5t29.5 -73.5q0 -14 -2 -23q-49 -207 -248 -206q-41 0 -85 11t-103 32q-88 33 -125 32q-31 0 -49.5 -9t-30.5 -32q-12 -25 -38 -40t-54 -15 q-43 0 -73 31t-30 72z" />
<glyph unicode="&#x2000;" horiz-adv-x="1031" />
<glyph unicode="&#x2001;" horiz-adv-x="2062" />
<glyph unicode="&#x2002;" horiz-adv-x="1031" />
<glyph unicode="&#x2003;" horiz-adv-x="2062" />
<glyph unicode="&#x2004;" horiz-adv-x="687" />
<glyph unicode="&#x2005;" horiz-adv-x="515" />
<glyph unicode="&#x2006;" horiz-adv-x="343" />
<glyph unicode="&#x2007;" horiz-adv-x="343" />
<glyph unicode="&#x2008;" horiz-adv-x="257" />
<glyph unicode="&#x2009;" horiz-adv-x="412" />
<glyph unicode="&#x200a;" horiz-adv-x="114" />
<glyph unicode="&#x2010;" horiz-adv-x="884" d="M70 618q0 63 44 107.5t107 44.5h441q63 0 107 -44t44 -108q0 -63 -44 -108t-107 -45h-441q-63 0 -107 45t-44 108z" />
<glyph unicode="&#x2011;" horiz-adv-x="884" d="M70 618q0 63 44 107.5t107 44.5h441q63 0 107 -44t44 -108q0 -63 -44 -108t-107 -45h-441q-63 0 -107 45t-44 108z" />
<glyph unicode="&#x2012;" horiz-adv-x="884" d="M70 618q0 63 44 107.5t107 44.5h441q63 0 107 -44t44 -108q0 -63 -44 -108t-107 -45h-441q-63 0 -107 45t-44 108z" />
<glyph unicode="&#x2013;" horiz-adv-x="1148" d="M76 616q0 51 35.5 87t87.5 36h749q51 0 87 -35.5t36 -87.5q0 -51 -36 -86.5t-87 -35.5h-749q-52 0 -87.5 35.5t-35.5 86.5z" />
<glyph unicode="&#x2014;" horiz-adv-x="1968" d="M76 616q0 51 35.5 87t87.5 36h1568q51 0 87 -35.5t36 -87.5q0 -51 -35.5 -86.5t-87.5 -35.5h-1568q-52 0 -87.5 35.5t-35.5 86.5z" />
<glyph unicode="&#x2018;" horiz-adv-x="561" d="M70 1169l2 25q16 141 78.5 239.5t214.5 165.5q12 6 30 7q31 0 52.5 -21.5t21.5 -52.5q0 -18 -10 -35.5t-27 -28.5q-70 -41 -104.5 -86t-34.5 -106h12q74 0 126 -52.5t52 -127.5q0 -74 -52 -126t-126 -52q-98 6 -166.5 79.5t-68.5 171.5z" />
<glyph unicode="&#x2019;" horiz-adv-x="559" d="M76 1368q0 74 52 126t126 52q100 -6 167.5 -78.5t67.5 -171.5l-2 -26q-14 -141 -76.5 -238.5t-215.5 -167.5q-12 -6 -31 -6q-31 0 -52.5 21.5t-21.5 52.5q0 18 10.5 35.5t26.5 27.5q70 41 104.5 86t34.5 107h-12q-74 0 -126 52t-52 128z" />
<glyph unicode="&#x201c;" horiz-adv-x="1085" d="M70 1169l2 25q16 141 78.5 239.5t214.5 165.5q12 6 30 7q31 0 52.5 -21.5t21.5 -52.5q0 -18 -10 -35.5t-27 -28.5q-70 -41 -104.5 -86t-34.5 -106h12q74 0 126 -52.5t52 -127.5q0 -74 -52 -126t-126 -52q-98 6 -166.5 79.5t-68.5 171.5zM594 1169l2 25q16 141 78.5 239.5 t214.5 165.5q12 6 31 7q31 0 52 -21.5t21 -52.5q0 -18 -10 -35.5t-27 -28.5q-70 -41 -104.5 -86t-34.5 -106h12q74 0 126.5 -52.5t52.5 -127.5q0 -74 -52.5 -126t-126.5 -52q-98 6 -166.5 79.5t-68.5 171.5z" />
<glyph unicode="&#x201d;" horiz-adv-x="1083" d="M76 1368q0 74 52 126t126 52q100 -6 167.5 -78.5t67.5 -171.5l-2 -26q-14 -141 -76.5 -238.5t-215.5 -167.5q-12 -6 -31 -6q-31 0 -52.5 21.5t-21.5 52.5q0 18 10.5 35.5t26.5 27.5q70 41 104.5 86t34.5 107h-12q-74 0 -126 52t-52 128zM600 1368q0 74 52.5 126t125.5 52 q100 -6 168 -78.5t68 -171.5l-2 -26q-14 -141 -77 -238.5t-216 -167.5q-12 -6 -31 -6q-31 0 -52.5 21.5t-21.5 52.5q0 18 10.5 35.5t26.5 27.5q70 41 105 86t35 107h-13q-74 0 -126 52t-52 128z" />
<glyph unicode="&#x2022;" horiz-adv-x="755" d="M96 604q0 76 38 140.5t103.5 102.5t141.5 38t140.5 -38t102 -102.5t37.5 -140.5t-37.5 -141.5t-102 -103t-140.5 -37.5t-141.5 37.5t-103.5 103t-38 141.5z" />
<glyph unicode="&#x202f;" horiz-adv-x="412" />
<glyph unicode="&#x2039;" horiz-adv-x="559" d="M49 530q0 57 35 123l141 256q16 33 48 51.5t69 18.5q57 0 96 -39t39 -96q0 -29 -14 -62l-125 -245l125 -250q14 -33 14 -62q0 -57 -40 -97t-97 -40q-39 0 -71.5 19.5t-49.5 52.5l-137 256q-33 59 -33 114z" />
<glyph unicode="&#x203a;" horiz-adv-x="559" d="M82 223q0 29 14 62l125 245l-125 250q-14 33 -14 62q0 57 40 97t97 40q39 0 72 -19.5t49 -52.5l137 -256q33 -59 33 -114q0 -57 -35 -123l-141 -256q-16 -33 -48 -51.5t-69 -18.5q-57 0 -96 39t-39 96z" />
<glyph unicode="&#x205f;" horiz-adv-x="515" />
<glyph unicode="&#x20ac;" horiz-adv-x="1521" d="M76 590q0 43 30.5 73.5t73.5 30.5h76q-2 23 -2 64q0 55 2 86h-76q-43 0 -73.5 30.5t-30.5 73.5t30.5 74t73.5 31h107q61 248 219 385t401 137q338 0 490 -217q29 -41 28 -103q0 -72 -51 -123t-123 -51q-49 0 -90 24.5t-63 65.5q-61 115 -193 115q-100 0 -161.5 -53 t-86.5 -180h271q43 0 73.5 -31t30.5 -74t-30.5 -73.5t-73.5 -30.5h-293v-58q0 -61 2 -92h291q43 0 73.5 -30.5t30.5 -73.5t-30.5 -74t-73.5 -31h-266q31 -125 91 -178t160 -53q72 0 121 28.5t82 88.5q23 41 62 65.5t88 24.5q72 0 122 -50.5t50 -121.5q0 -45 -29 -92 q-150 -231 -512 -232q-248 0 -404.5 135.5t-211.5 384.5h-101q-43 0 -73.5 31t-30.5 74z" />
<glyph unicode="&#x2122;" horiz-adv-x="1419" d="M63 1481q0 31 19.5 48t52.5 17h332q33 0 52.5 -17.5t19.5 -47.5q0 -31 -19.5 -48.5t-52.5 -17.5h-90v-409q0 -33 -18.5 -52.5t-53.5 -19.5h-8q-33 0 -52.5 19.5t-19.5 52.5v409h-90q-33 0 -52.5 17.5t-19.5 48.5zM592 1006v469q0 35 19.5 53t52.5 18h75q61 0 82 -57 l70 -203l29 -96l6 -27h6l6 27q4 10 9 32.5t20 61.5l69 205q20 57 82 57h68q35 0 53 -18.5t18 -52.5v-469q0 -33 -18 -52.5t-53 -19.5q-33 0 -52.5 19.5t-19.5 52.5v360h-6l-6 -39q-2 -8 -9.5 -39t-19.5 -67l-76 -228q-18 -59 -73 -59q-59 0 -78 59l-76 230q-10 31 -29 104 q-2 4 -8 39h-6v-360q0 -35 -17.5 -53.5t-50.5 -18.5q-32 0 -49.5 18.5t-17.5 53.5z" />
<glyph unicode="&#x25fc;" horiz-adv-x="1136" d="M0 0v1137h1137v-1137h-1137z" />
</font>
</defs>
</svg>
