<?xml version="1.0" encoding="utf-8"?>
<!-- Generator: Adobe Illustrator 21.1.0, SVG Export Plug-In . SVG Version: 6.00 Build 0)  -->
<svg version="1.1" id="Слой_1" xmlns="http://www.w3.org/2000/svg" xmlns:xlink="http://www.w3.org/1999/xlink" x="0px" y="0px"
	 viewBox="0 0 60.1 54.4" style="enable-background:new 0 0 60.1 54.4;" xml:space="preserve">
<style type="text/css">
	.st0{fill:#FFFFFF;}
</style>
<g>
	<path class="st0" d="M35.7,10.8c0.9-0.4,1.8-0.8,2.8-1.2c1-0.4,2-0.7,2.9-1c1-0.3,2-0.5,3-0.8c1-0.2,2-0.4,3.1-0.6
		c1-0.2,2-0.3,3-0.4c1-0.1,2-0.2,3-0.2c0.8,0,1.6-0.1,2.4-0.1c0.6,0,1.2-0.5,1.4-1.1c0.2-0.7-0.2-1.4-0.9-1.7
		c-0.5-0.2-1.2,0-1.7,0.1c-0.9,0.1-1.8,0.3-2.6,0.5c0.1,0,0.1,0,0,0c-0.3,0.1-0.2,0-0.1,0c-1,0.2-2,0.4-2.9,0.6c-1,0.2-2,0.5-3,0.8
		c-2,0.6-3.9,1.3-5.8,2.1c-1.3,0.6-2.5,1.2-3.7,1.9c-0.6,0.3-1.1,0.7-1.7,1.1c-0.4,0.3-0.8,0.6-1.2,0.9c0,0,0.1,0,0.1,0
		C34.3,11.5,35,11.2,35.7,10.8L35.7,10.8z M35.7,10.8"/>
	<path class="st0" d="M33.6,10.4c0.8-0.6,1.6-1.2,2.5-1.7c1.5-0.9,3.1-1.7,4.6-2.5c1.9-0.9,3.9-1.5,5.9-2.1c1.7-0.5,3.5-0.9,5.2-1.2
		C52.5,2.7,53,2.1,53,1.4C53,0.7,52.4,0,51.6,0c-0.2,0-0.5,0.1-0.7,0.1c-0.4,0.1-0.8,0.3-1.2,0.4c-0.9,0.3-1.9,0.7-2.8,1
		c-2,0.7-3.8,1.7-5.7,2.7c-1.5,0.8-3,1.8-4.3,2.8c-1.1,0.8-2.2,1.7-3.2,2.6c-0.5,0.5-0.9,0.9-1.4,1.4c-0.4,0.4-0.7,0.8-1,1.2
		c0.1-0.1,0.1-0.1,0.2-0.2C32.2,11.5,32.9,10.9,33.6,10.4L33.6,10.4z M33.6,10.4"/>
	<path class="st0" d="M24.5,10.6c-0.9-0.5-1.7-1-2.6-1.5C21,8.6,20,8.1,19.1,7.7c-0.9-0.4-1.9-0.8-2.9-1.1c-1-0.3-2-0.7-3-0.9
		c-1-0.3-2-0.5-3-0.8C8.4,4.5,6.5,4.2,4.6,3.9C4.3,3.8,4,3.8,3.6,3.9C3.2,4.1,2.9,4.4,2.8,4.8C2.5,5.7,3.2,6.6,4.1,6.7
		c0.7,0,1.4,0.1,2.1,0.1c1,0,2,0.1,3,0.2c1,0.1,2.1,0.2,3.1,0.4c1,0.2,2,0.3,3,0.5c2,0.4,4.1,1,6,1.7c0.9,0.3,1.9,0.7,2.8,1.1
		c0.8,0.4,1.6,0.8,2.3,1.3c0,0,0.1,0,0.1,0C25.9,11.5,25.2,11,24.5,10.6L24.5,10.6z M24.5,10.6"/>
	<path class="st0" d="M8.2,2.8c1.7,0.3,3.3,0.6,4.9,1.1c2,0.6,3.9,1.3,5.9,2.1c1,0.4,1.9,0.9,2.8,1.4c0.6,0.3,1.3,0.7,1.9,1.1
		c1.7,1,3.3,2.2,4.7,3.5c0.1,0.1,0.2,0.2,0.3,0.4c-0.5-0.7-1.1-1.3-1.7-1.9c-0.7-0.7-1.5-1.4-2.2-2.1c-1.3-1.1-2.7-2.1-4.1-3
		c-1.8-1.1-3.7-2.1-5.6-3c-1-0.4-1.9-0.8-2.9-1.2c-0.9-0.3-1.8-0.6-2.7-0.9C9.2,0.2,8.8,0,8.5,0C8,0,7.6,0.2,7.3,0.6
		C6.7,1.5,7.2,2.6,8.2,2.8L8.2,2.8z M8.2,2.8"/>
	<path class="st0" d="M58.7,9c-0.6,0-1.2,0-1.8,0c-7.6,0-15.3,1.5-20.2,2.8v41.3c4.8-2,13.3-5.2,22.2-6.6c0.7-0.1,1.2-0.7,1.2-1.4
		V10.5C60.1,9.7,59.5,9.1,58.7,9L58.7,9z M58.7,9"/>
	<path class="st0" d="M34.3,11.9c-1.5,0.7-2.9,1-4.2,1c-1.3,0-2.7-0.3-4.2-1l-0.3-0.1v0c0,7.5,0,19.6,0,27.6v13.7
		c0.1,0.2,1.1,1.3,4.5,1.3s4.4-1.1,4.5-1.3V11.8L34.3,11.9z M34.3,11.9"/>
	<path class="st0" d="M1.4,9C0.6,9.1,0,9.7,0,10.5v34.6c0,0.7,0.5,1.3,1.2,1.4c8.9,1.4,17.4,4.5,22.2,6.6V40.2c0-9.2,0-19.8,0-28.4
		C18.5,10.6,10.8,9,3.2,9C2.6,9,2,9,1.4,9L1.4,9z M1.4,9"/>
</g>
</svg>
