<?xml version="1.0" encoding="utf-8"?>
<!-- Generator: Adobe Illustrator 21.1.0, SVG Export Plug-In . SVG Version: 6.00 Build 0)  -->
<svg version="1.1" id="Слой_1" xmlns="http://www.w3.org/2000/svg" xmlns:xlink="http://www.w3.org/1999/xlink" x="0px" y="0px"
	 viewBox="0 0 57.9 45.9" style="enable-background:new 0 0 57.9 45.9;" xml:space="preserve">
<style type="text/css">
	.st0{fill:#FFFFFF;}
</style>
<g>
	<path class="st0" d="M0,22.9v19.3c0,2,1.6,3.6,3.6,3.6h50.7c2,0,3.6-1.6,3.6-3.6V16.5h-1.2c-0.1,0-0.3,0-0.4,0h-9.9
		c-2.8,0-5.1-2.3-5.1-5.1V1.6c0-0.1,0-0.2,0-0.3V0H3.6C1.6,0,0,1.6,0,3.6V22.9z M33.6,11.1"/>
	<path class="st0" d="M43.4,1.6v9.9c0,1.6,1.3,3,3,3h9.9c0.9,0,1.5-0.7,1.5-1.5c0-0.4-0.1-0.7-0.4-1.1L46,0.5
		C45-0.5,43.4,0.2,43.4,1.6L43.4,1.6z M43.4,1.6"/>
</g>
</svg>
