<?xml version="1.0" encoding="utf-8"?>
<!-- Generator: Adobe Illustrator 21.1.0, SVG Export Plug-In . SVG Version: 6.00 Build 0)  -->
<svg version="1.1" id="Слой_1" xmlns="http://www.w3.org/2000/svg" xmlns:xlink="http://www.w3.org/1999/xlink" x="0px" y="0px"
	 viewBox="0 0 71.9 45.9" style="enable-background:new 0 0 71.9 45.9;" xml:space="preserve">
<style type="text/css">
	.st0{fill:#FFFFFF;}
</style>
<g>
	<path class="st0" d="M64.1,26.2c-0.6,1.6-1.3,3.1-2.2,4.7C57.6,38.4,50.2,43,44.6,45.6c1.2,0.2,2.6,0.3,3.9,0.3
		c2.9,0,6-0.4,8.9-1.7c9.9-4.2,14.5-15.9,14.5-15.9S68.6,26.9,64.1,26.2L64.1,26.2z M64.1,26.2"/>
	<path class="st0" d="M9.9,30.8c-0.9-1.5-1.6-3.1-2.2-4.7C3.2,26.9,0,28.3,0,28.3S4.5,40,14.5,44.2c2.9,1.2,6,1.7,8.9,1.7
		c1.4,0,2.7-0.1,3.9-0.3C21.7,43,14.3,38.4,9.9,30.8L9.9,30.8z M9.9,30.8"/>
	<path class="st0" d="M45.5,39.6c4.3-2.4,9.1-6,12.1-11.2C64.3,16.9,60,2,60,2s-6.2,1.6-12.5,5.7c2,4,3.6,8.9,3.6,14.1
		C51.1,28.8,48.3,35,45.5,39.6L45.5,39.6z M45.5,39.6"/>
	<path class="st0" d="M26.4,39.6c-2.9-4.5-5.6-10.8-5.6-17.7c0-5.3,1.6-10.1,3.6-14.1C18.2,3.5,11.9,2,11.9,2s-4.3,14.9,2.4,26.3
		C17.3,33.6,22.1,37.2,26.4,39.6L26.4,39.6z M26.4,39.6"/>
	<path class="st0" d="M36,0c0,0-10.2,9.8-10.2,21.8C25.8,33.9,36,43.7,36,43.7s10.2-9.8,10.2-21.8C46.1,9.8,36,0,36,0L36,0z M36,0"
		/>
</g>
</svg>
