<?xml version="1.0" encoding="utf-8"?>
<!-- Generator: Adobe Illustrator 21.1.0, SVG Export Plug-In . SVG Version: 6.00 Build 0)  -->
<svg version="1.1" id="Слой_1" xmlns="http://www.w3.org/2000/svg" xmlns:xlink="http://www.w3.org/1999/xlink" x="0px" y="0px"
	 viewBox="0 0 58 61.4" style="enable-background:new 0 0 58 61.4;" xml:space="preserve">
<style type="text/css">
	.st0{fill:#FFFFFF;}
</style>
<g>
	<g>
		<g>
			<path class="st0" d="M12.5,30.3c3,3.8,3.1,8.7,0.3,10.9c-2.8,2.2-7.5,0.9-10.5-2.9c-3-3.8-3.1-8.7-0.3-10.9
				C4.8,25.2,9.5,26.5,12.5,30.3L12.5,30.3z M21.7,0.1c-3.4,1.2-4.8,5.9-3.2,10.4c1.6,4.6,5.7,7.3,9,6.1c3.4-1.2,4.8-5.9,3.1-10.4
				C28.6,0.2,22.5-0.2,21.7,0.1L21.7,0.1z M37.3,8.6c-3,2.1-3.5,6.6-0.4,11c3.1,4.4,6.9,4.8,9.9,2.7c3-2.1,4-5.8,0.9-10.2
				C43.7,6.4,38,8.1,37.3,8.6L37.3,8.6z M5.9,9.3C3,11.2,2.9,16,5.5,20c2.7,4,7.2,5.6,10,3.7c2.9-1.9,3-6.7,0.4-10.7
				C13.3,9,8.8,7.3,5.9,9.3L5.9,9.3z M20.3,32.1c-0.1,3.5-0.4,7.1-2,12.6c-1.6,5.5-1.7,8.7,0.3,11.8c2.1,3.1,7.3,7.1,12.4,3.7
				c5-3.4,6.7-6.1,10.7-8.8c4-2.7,7.7-2.9,12.7-6.3c5-3.4,3.9-9.6,1.9-12.7c-2.1-3.1-4.1-4.3-10.6-5.1c-4.1-0.5-7.5-0.9-14.2-3.4
				c-3.3-1.2-5.4-0.2-7.5,1.2C22,26.4,20.3,28.6,20.3,32.1L20.3,32.1z M20.3,32.1"/>
		</g>
	</g>
</g>
</svg>
