<?xml version="1.0" encoding="utf-8"?>
<!-- Generator: Adobe Illustrator 21.1.0, SVG Export Plug-In . SVG Version: 6.00 Build 0)  -->
<svg version="1.1" id="Слой_1" xmlns="http://www.w3.org/2000/svg" xmlns:xlink="http://www.w3.org/1999/xlink" x="0px" y="0px"
	 viewBox="0 0 50.9 62.2" style="enable-background:new 0 0 50.9 62.2;" xml:space="preserve">
<style type="text/css">
	.st0{fill:#FFFFFF;}
</style>
<g>
	<path class="st0" d="M47.5,7h-1.8v44.7c0,3-2.4,5.4-5.4,5.4H7.2v1.7c0,1.9,1.5,3.4,3.4,3.4h36.8c1.9,0,3.4-1.5,3.4-3.4V10.5
		C50.9,8.6,49.4,7,47.5,7L47.5,7z M47.5,7"/>
	<g>
		<path class="st0" d="M21.8,55.1h18.4c1.9,0,3.4-1.5,3.4-3.4V3.4c0-1.9-1.5-3.4-3.4-3.4H15.7v1.1c0,0.1,0,0.2,0,0.4v9.4
			c0,2.7-2.2,4.8-4.8,4.8H1.5c-0.1,0-0.2,0-0.3,0H0v36c0,1.9,1.5,3.4,3.4,3.4H21.8z M22.5,43.5h-12c-0.9,0-1.6-0.7-1.6-1.6
			s0.7-1.6,1.6-1.6h12c0.9,0,1.6,0.7,1.6,1.6S23.4,43.5,22.5,43.5L22.5,43.5z M34.6,35.2h-24c-0.9,0-1.6-0.7-1.6-1.6
			c0-0.9,0.7-1.6,1.6-1.6h24c0.9,0,1.6,0.7,1.6,1.6C36.2,34.5,35.4,35.2,34.6,35.2L34.6,35.2z M10.5,23.1h24c0.9,0,1.6,0.7,1.6,1.6
			s-0.7,1.6-1.6,1.6h-24c-0.9,0-1.6-0.7-1.6-1.6S9.6,23.1,10.5,23.1L10.5,23.1z M10.5,23.1"/>
		<path class="st0" d="M1.5,13.8h9.4c1.6,0,2.8-1.3,2.9-2.9V1.5c0-0.9-0.7-1.4-1.5-1.4c-0.4,0-0.7,0.1-1,0.4L0.5,11.3
			C-0.4,12.2,0.2,13.8,1.5,13.8L1.5,13.8z M1.5,13.8"/>
	</g>
</g>
</svg>
