<?xml version="1.0" encoding="utf-8"?>
<!-- Generator: Adobe Illustrator 21.1.0, SVG Export Plug-In . SVG Version: 6.00 Build 0)  -->
<svg version="1.1" id="Слой_1" xmlns="http://www.w3.org/2000/svg" xmlns:xlink="http://www.w3.org/1999/xlink" x="0px" y="0px"
	 viewBox="0 0 65.5 65.3" style="enable-background:new 0 0 65.5 65.3;" xml:space="preserve">
<style type="text/css">
	.st0{fill:#FFFFFF;}
</style>
<g>
	<path class="st0" d="M12.3,32.5c0-0.8,0-1.5,0.1-2.3L0.6,26.4c-0.4,2-0.6,4-0.6,6.1c0,9.4,4,17.9,10.3,23.9l7.3-10.1
		C14.3,42.7,12.3,37.8,12.3,32.5L12.3,32.5z M53.2,32.5c0,5.3-2,10.2-5.4,13.8l7.3,10.1c6.4-6,10.3-14.5,10.3-23.9
		c0-2.1-0.2-4.2-0.6-6.1l-11.8,3.8C53.2,31,53.2,31.7,53.2,32.5L53.2,32.5z M36.8,12.4c5.9,1.2,10.8,4.9,13.7,10l11.8-3.8
		C57.7,8.6,48.2,1.4,36.8,0V12.4z M14.9,22.4c2.9-5.1,7.8-8.8,13.7-10V0C17.3,1.4,7.8,8.6,3.1,18.6L14.9,22.4z M41.2,51.1
		c-2.6,1.2-5.5,1.8-8.5,1.8c-3,0-5.9-0.7-8.5-1.8L17,61.2c4.7,2.6,10.1,4.1,15.8,4.1c5.7,0,11.1-1.5,15.8-4.1L41.2,51.1z M41.2,51.1
		"/>
</g>
</svg>
