<?xml version="1.0" encoding="utf-8"?>
<!-- Generator: Adobe Illustrator 21.1.0, SVG Export Plug-In . SVG Version: 6.00 Build 0)  -->
<svg version="1.1" id="Слой_1" xmlns="http://www.w3.org/2000/svg" xmlns:xlink="http://www.w3.org/1999/xlink" x="0px" y="0px"
	 viewBox="0 0 47.5 47.6" style="enable-background:new 0 0 47.5 47.6;" xml:space="preserve">
<style type="text/css">
	.st0{fill:#15253D;}
</style>
<g>
	<rect x="17.7" class="st0" width="29.7" height="11.9"/>
	<rect x="17.7" y="17.8" class="st0" width="29.7" height="11.9"/>
	<rect x="17.7" y="35.7" class="st0" width="29.7" height="11.9"/>
</g>
<path class="st0" d="M5.3,11c-0.5,0-0.9-0.2-1.2-0.5L0.3,5.9c-0.5-0.6-0.5-1.6,0.2-2.1s1.6-0.5,2.1,0.2L5.3,7l4.9-6.2
	c0.5-0.6,1.5-0.7,2.1-0.2c0.6,0.5,0.7,1.4,0.2,2.1l-6.1,7.6C6.2,10.8,5.7,11,5.3,11z"/>
<path class="st0" d="M5.3,28.8c-0.5,0-0.9-0.2-1.2-0.5l-3.8-4.6c-0.5-0.6-0.5-1.6,0.2-2.1c0.6-0.5,1.6-0.5,2.1,0.2l2.6,3.1l4.9-6.2
	c0.5-0.6,1.5-0.7,2.1-0.2c0.6,0.5,0.7,1.4,0.2,2.1l-6.1,7.6C6.2,28.6,5.7,28.8,5.3,28.8z"/>
<path class="st0" d="M5.3,47.6c-0.5,0-0.9-0.2-1.2-0.5l-3.8-4.6c-0.5-0.6-0.5-1.6,0.2-2.1c0.6-0.5,1.6-0.5,2.1,0.2l2.6,3.1l4.9-6.2
	c0.5-0.6,1.5-0.7,2.1-0.2c0.6,0.5,0.7,1.4,0.2,2.1l-6.1,7.6C6.2,47.4,5.7,47.6,5.3,47.6z"/>
</svg>
