<?xml version="1.0" encoding="utf-8"?>
<!-- Generator: Adobe Illustrator 21.1.0, SVG Export Plug-In . SVG Version: 6.00 Build 0)  -->
<svg version="1.1" id="Слой_1" xmlns="http://www.w3.org/2000/svg" xmlns:xlink="http://www.w3.org/1999/xlink" x="0px" y="0px"
	 viewBox="0 0 52.8 48.9" style="enable-background:new 0 0 52.8 48.9;" xml:space="preserve">
<style type="text/css">
	.st0{fill:#15253D;}
</style>
<path class="st0" d="M31,30.3c-0.3-0.5-0.9-0.7-1.4-0.5c-1,0.4-2.1,0.7-3.2,0.7c-1.1,0-2.2-0.2-3.2-0.7c-0.5-0.2-1.1,0-1.4,0.5
	l-7.9,13.8c-0.3,0.6-0.1,1.3,0.5,1.6c1.9,1,6.4,2.9,12.1,2.9h0.1c5.6,0,10.1-2,12.1-2.9c0.6-0.3,0.8-1,0.5-1.6L31,30.3z M31,30.3"/>
<path class="st0" d="M18.2,21.4c0.3-2.3,1.5-4.3,3.2-5.6c0.5-0.3,0.6-1,0.3-1.5l-8-13.7c-0.3-0.6-1-0.7-1.6-0.4
	c-1.8,1.2-5.7,4.1-8.5,9c0,0,0,0,0,0.1c0,0,0,0.1,0,0.1C0.7,14.2,0.1,19.1,0,21.2c0,0.6,0.5,1.2,1.1,1.2h15.9
	C17.6,22.4,18.1,22,18.2,21.4L18.2,21.4z M18.2,21.4"/>
<path class="st0" d="M49.1,9.3C49.1,9.3,49.1,9.2,49.1,9.3c0-0.1,0-0.1-0.1-0.1c-2.8-4.9-6.7-7.8-8.5-9C40-0.2,39.3,0,39,0.6
	l-8,13.7c-0.3,0.5-0.2,1.1,0.3,1.5c1.7,1.3,2.9,3.4,3.2,5.6c0.1,0.6,0.5,1,1.1,1h15.9c0.6,0,1.2-0.5,1.1-1.2
	C52.5,19.1,51.9,14.2,49.1,9.3L49.1,9.3z M49.1,9.3"/>
<g>
	<path class="st0" d="M20.8,22.4c0,2,1.1,3.7,2.7,4.7c0.8,0.5,1.8,0.7,2.8,0.7c1,0,2-0.3,2.8-0.7c1.6-0.9,2.7-2.7,2.7-4.7v0
		c0-2-1.1-3.8-2.7-4.8c-0.8-0.5-1.7-0.7-2.7-0.7c-1,0-1.9,0.3-2.7,0.7C21.9,18.5,20.8,20.3,20.8,22.4C20.8,22.3,20.8,22.3,20.8,22.4
		L20.8,22.4z M20.8,22.4"/>
</g>
</svg>
