<?xml version="1.0" encoding="utf-8"?>
<!-- Generator: Adobe Illustrator 21.1.0, SVG Export Plug-In . SVG Version: 6.00 Build 0)  -->
<svg version="1.1" id="Слой_1" xmlns="http://www.w3.org/2000/svg" xmlns:xlink="http://www.w3.org/1999/xlink" x="0px" y="0px"
	 viewBox="0 0 61.7 48.2" style="enable-background:new 0 0 61.7 48.2;" xml:space="preserve">
<style type="text/css">
	.st0{fill:#15253D;}
</style>
<g>
	<path class="st0" d="M61.7,11.6V0H0v11.6h26.6v8.7c-5.8,1.8-9.9,7.3-9.9,13.6c0,7.9,6.4,14.3,14.3,14.3c7.9,0,14.3-6.4,14.3-14.3
		c0-6.4-4.2-11.8-10-13.6v-8.7H61.7z M35.7,28.7c0,2.6-2.1,4.7-4.7,4.7c-2.6,0-4.7-2.1-4.7-4.7c0-2.6,2.1-4.7,4.7-4.7
		C33.7,24,35.7,26.1,35.7,28.7L35.7,28.7z M35.7,28.7"/>
</g>
</svg>
