<?xml version="1.0" encoding="utf-8"?>
<!-- Generator: Adobe Illustrator 21.1.0, SVG Export Plug-In . SVG Version: 6.00 Build 0)  -->
<svg version="1.1" id="Слой_1" xmlns="http://www.w3.org/2000/svg" xmlns:xlink="http://www.w3.org/1999/xlink" x="0px" y="0px"
	 viewBox="0 0 15 10.3" style="enable-background:new 0 0 15 10.3;" xml:space="preserve">
<style type="text/css">
	.st0{fill:#FFFFFF;}
	.st1{fill:#FB584F;}
</style>
<g>
	<path class="st0" d="M14.3,1c-0.4-0.7-0.8-0.9-1.7-0.9C11.7,0,9.4,0,7.5,0c-2,0-4.2,0-5.1,0.1C1.5,0.1,1,0.3,0.6,1
		C0.2,1.7,0,3,0,5.1v0v0v0c0,2.2,0.2,3.4,0.6,4.1C1,10,1.5,10.2,2.4,10.2c0.9,0.1,3.2,0.1,5.1,0.1c2,0,4.2,0,5.1-0.1
		c0.9-0.1,1.3-0.2,1.7-0.9c0.4-0.7,0.6-2,0.6-4.1v0v0C15,3,14.8,1.7,14.3,1z"/>
	<polygon class="st1" points="5.6,8 5.6,2.3 10.3,5.1 	"/>
</g>
</svg>
