<?xml version="1.0" encoding="utf-8"?>
<!-- Generator: Adobe Illustrator 21.1.0, SVG Export Plug-In . SVG Version: 6.00 Build 0)  -->
<svg version="1.1" id="Слой_1" xmlns="http://www.w3.org/2000/svg" xmlns:xlink="http://www.w3.org/1999/xlink" x="0px" y="0px"
	 viewBox="0 0 274.9 31.8" style="enable-background:new 0 0 274.9 31.8;" xml:space="preserve">
<style type="text/css">
	.st0{fill:#01203B;}
	.st1{fill:#BD232C;}
</style>
<g>
	<g>
		<path class="st0" d="M48.1,8.1c1.3,0,2.7,0.2,3.9,1.2c1.3,1.1,1.4,2.6,1.4,3.6c0,1.8-0.7,2.9-1.3,3.5c-1.2,1.2-2.7,1.3-3.7,1.3
			h-2.1v5.1H43V8.1H48.1z M46.4,14.9h1.2c0.5,0,1.3,0,1.8-0.5c0.3-0.3,0.5-0.8,0.5-1.5c0-0.6-0.2-1.1-0.5-1.4
			c-0.5-0.5-1.2-0.6-1.9-0.6h-1.1V14.9z"/>
		<path class="st0" d="M63.9,11H59v2.8h4.7v2.9H59v3.3h4.9v2.9h-8.3V8.1h8.3V11z"/>
		<path class="st0" d="M71.8,11v11.8h-3.4V11h-3.2V8.1h9.8V11H71.8z"/>
		<path class="st0" d="M87,8.1c1.3,0,2.7,0.2,3.9,1.2c1.3,1.1,1.4,2.6,1.4,3.6c0,1.8-0.7,2.9-1.3,3.5c-1.2,1.2-2.7,1.3-3.7,1.3h-2.1
			v5.1h-3.4V8.1H87z M85.2,14.9h1.2c0.5,0,1.3,0,1.8-0.5c0.3-0.3,0.5-0.8,0.5-1.5c0-0.6-0.2-1.1-0.5-1.4c-0.5-0.5-1.2-0.6-1.9-0.6
			h-1.1V14.9z"/>
		<path class="st0" d="M107.9,9.9c1.4,1.3,2.3,3.3,2.3,5.5c0,2-0.7,4-2.3,5.5c-1.4,1.3-3.2,2.2-5.7,2.2c-2.8,0-4.6-1.1-5.7-2.2
			c-1.4-1.3-2.3-3.3-2.3-5.5c0-2.1,0.9-4.2,2.3-5.6c1-1,2.8-2.2,5.7-2.2C104.5,7.8,106.4,8.5,107.9,9.9z M99,12.1
			c-0.6,0.6-1.3,1.7-1.3,3.3c0,1.3,0.4,2.4,1.3,3.3c0.9,0.9,2,1.2,3.1,1.2c1.5,0,2.6-0.5,3.3-1.3c0.6-0.6,1.3-1.6,1.3-3.3
			c0-1.5-0.6-2.6-1.3-3.3c-0.7-0.7-1.9-1.3-3.2-1.3C100.9,10.9,99.8,11.4,99,12.1z"/>
		<path class="st0" d="M116.2,8.1v14.7h-3.4V8.1H116.2z"/>
		<path class="st0" d="M127,11.7c-1.1-1-2-1.1-2.5-1.1c-0.5,0-1,0.1-1.4,0.5c-0.2,0.2-0.4,0.6-0.4,0.9c0,0.4,0.1,0.6,0.3,0.8
			c0.4,0.3,0.9,0.5,1.8,0.8l1.1,0.4c0.6,0.2,1.4,0.6,2,1.1c0.9,0.8,1.1,1.9,1.1,2.7c0,1.5-0.5,2.8-1.3,3.6c-1.3,1.4-3.2,1.5-4.2,1.5
			c-1.1,0-2-0.2-2.9-0.6c-0.7-0.4-1.6-1.1-2.2-1.6l1.8-2.4c0.4,0.4,1,0.9,1.4,1.1c0.6,0.4,1.2,0.5,1.8,0.5c0.4,0,1.1-0.1,1.5-0.5
			c0.3-0.2,0.5-0.6,0.5-1.2c0-0.5-0.2-0.8-0.5-1.1c-0.4-0.3-1.3-0.7-1.7-0.8l-1.2-0.4c-0.7-0.2-1.5-0.5-2-1.2
			c-0.8-0.8-0.9-1.8-0.9-2.6c0-1.3,0.4-2.4,1.3-3.3c1-1.1,2.3-1.3,3.6-1.3c1,0,2.6,0.2,4.4,1.5L127,11.7z"/>
		<path class="st0" d="M144.6,9.9c1.4,1.3,2.3,3.3,2.3,5.5c0,2-0.7,4-2.3,5.5c-1.4,1.3-3.2,2.2-5.7,2.2c-2.8,0-4.6-1.1-5.7-2.2
			c-1.4-1.3-2.3-3.3-2.3-5.5c0-2.1,0.9-4.2,2.3-5.6c1-1,2.8-2.2,5.7-2.2C141.2,7.8,143.1,8.5,144.6,9.9z M135.6,12.1
			c-0.6,0.6-1.3,1.7-1.3,3.3c0,1.3,0.4,2.4,1.3,3.3c0.9,0.9,2,1.2,3.1,1.2c1.5,0,2.6-0.5,3.3-1.3c0.6-0.6,1.3-1.6,1.3-3.3
			c0-1.5-0.6-2.6-1.3-3.3c-0.7-0.7-1.9-1.3-3.2-1.3C137.6,10.9,136.4,11.4,135.6,12.1z"/>
		<path class="st0" d="M149.4,22.8V8.1h2.9l8,9.5V8.1h3.4v14.7h-2.9l-8-9.5v9.5H149.4z"/>
		<path class="st1" d="M175.4,13.7h5.9V8.1h3.4v14.7h-3.4v-6.2h-5.9v6.2H172V8.1h3.4V13.7z"/>
		<path class="st1" d="M196.1,11h-4.9v2.8h4.7v2.9h-4.7v3.3h4.9v2.9h-8.3V8.1h8.3V11z"/>
		<path class="st1" d="M202.3,8.1v11.8h4.6v2.9h-7.9V8.1H202.3z"/>
		<path class="st1" d="M213.9,8.1c1.3,0,2.7,0.2,3.9,1.2c1.3,1.1,1.4,2.6,1.4,3.6c0,1.8-0.7,2.9-1.3,3.5c-1.2,1.2-2.7,1.3-3.7,1.3
			h-2.1v5.1h-3.4V8.1H213.9z M212.1,14.9h1.2c0.5,0,1.3,0,1.8-0.5c0.3-0.3,0.5-0.8,0.5-1.5c0-0.6-0.2-1.1-0.5-1.4
			c-0.5-0.5-1.2-0.6-1.9-0.6h-1.1V14.9z"/>
		<path class="st1" d="M224.7,8.1v11.8h4.6v2.9h-7.9V8.1H224.7z"/>
		<path class="st1" d="M234.6,8.1v14.7h-3.4V8.1H234.6z"/>
		<path class="st1" d="M237.9,22.8V8.1h2.9l8,9.5V8.1h3.4v14.7h-2.9l-8-9.5v9.5H237.9z"/>
		<path class="st1" d="M263.7,11h-4.9v2.8h4.7v2.9h-4.7v3.3h4.9v2.9h-8.3V8.1h8.3V11z"/>
		<path class="st1" d="M272.9,14.4c-0.8,0.7-1.8,1.3-3.1,1.3c-1.3,0-2.4-0.5-3.1-1.3c-0.8-0.8-1.3-2-1.3-3.2c0-1.2,0.5-2.4,1.3-3.2
			c0.8-0.7,1.8-1.3,3.1-1.3c1.3,0,2.4,0.5,3.1,1.3c0.8,0.8,1.3,2,1.3,3.2C274.2,12.4,273.7,13.5,272.9,14.4z M267.3,8.5
			c-0.6,0.6-1.1,1.6-1.1,2.7c0,1.1,0.5,2.1,1.1,2.7c0.6,0.6,1.6,1,2.5,1s1.8-0.4,2.5-1c0.6-0.6,1.1-1.6,1.1-2.7c0-1-0.5-2.1-1.1-2.7
			c-0.6-0.6-1.6-1-2.5-1S267.9,7.9,267.3,8.5z M269.6,8.7c0.4,0,1.1,0,1.5,0.5c0.2,0.2,0.4,0.6,0.4,1.1c0,0.4-0.2,0.7-0.4,1
			c-0.2,0.3-0.5,0.3-0.7,0.4l1.4,2h-1.7l-1-1.6v1.6h-1.4V8.7H269.6z M269.2,10.8h0.2c0.2,0,0.4,0,0.6-0.1c0.2-0.1,0.2-0.3,0.2-0.5
			c0-0.1,0-0.3-0.2-0.4c-0.2-0.1-0.5-0.1-0.7-0.1h-0.2V10.8z"/>
	</g>
</g>
<g>
	<g>
		<g>
			<path class="st0" d="M6.5,15.7c1.5,2,1.6,4.5,0.1,5.6c-1.5,1.1-3.9,0.5-5.4-1.5c-1.5-2-1.6-4.5-0.1-5.6
				C2.5,13.1,4.9,13.7,6.5,15.7L6.5,15.7z M11.3,0c-1.7,0.6-2.5,3-1.6,5.4c0.8,2.4,2.9,3.8,4.7,3.1c1.7-0.6,2.5-3,1.6-5.4
				C14.8,0.1,11.7-0.1,11.3,0L11.3,0z M19.3,4.5c-1.6,1.1-1.8,3.4-0.2,5.7c1.6,2.3,3.6,2.5,5.1,1.4c1.5-1.1,2.1-3,0.5-5.3
				C22.7,3.3,19.7,4.2,19.3,4.5L19.3,4.5z M3.1,4.8c-1.5,1-1.6,3.5-0.2,5.5c1.4,2.1,3.7,2.9,5.2,1.9c1.5-1,1.6-3.5,0.2-5.5
				C6.9,4.7,4.6,3.8,3.1,4.8L3.1,4.8z M10.5,16.6c0,1.8-0.2,3.7-1,6.5c-0.8,2.9-0.9,4.5,0.2,6.1c1.1,1.6,3.8,3.7,6.4,1.9
				c2.6-1.8,3.5-3.2,5.6-4.6c2.1-1.4,4-1.5,6.6-3.3c2.6-1.8,2-5,1-6.6c-1.1-1.6-2.1-2.2-5.5-2.6c-2.1-0.3-3.9-0.5-7.4-1.7
				c-1.7-0.6-2.8-0.1-3.9,0.6C11.4,13.7,10.5,14.8,10.5,16.6L10.5,16.6z M10.5,16.6"/>
		</g>
	</g>
</g>
</svg>
