<svg id="Слой_1" xmlns="http://www.w3.org/2000/svg" viewBox="0 0 58 61.4"><style>.st0{fill:#FFFFFF;}</style><path class="st0" d="M12.5 30.3c3 3.8 3.1 8.7.3 10.9-2.8 2.2-7.5.9-10.5-2.9S-.8 29.6 2 27.4c2.8-2.2 7.5-.9 10.5 2.9zM21.7.1c-3.4 1.2-4.8 5.9-3.2 10.4 1.6 4.6 5.7 7.3 9 6.1 3.4-1.2 4.8-5.9 3.1-10.4-2-6-8.1-6.4-8.9-6.1zm15.6 8.5c-3 2.1-3.5 6.6-.4 11s6.9 4.8 9.9 2.7c3-2.1 4-5.8.9-10.2-4-5.7-9.7-4-10.4-3.5zm-31.4.7C3 11.2 2.9 16 5.5 20c2.7 4 7.2 5.6 10 3.7 2.9-1.9 3-6.7.4-10.7-2.6-4-7.1-5.7-10-3.7zm14.4 22.8c-.1 3.5-.4 7.1-2 12.6s-1.7 8.7.3 11.8c2.1 3.1 7.3 7.1 12.4 3.7 5-3.4 6.7-6.1 10.7-8.8 4-2.7 7.7-2.9 12.7-6.3 5-3.4 3.9-9.6 1.9-12.7-2.1-3.1-4.1-4.3-10.6-5.1-4.1-.5-7.5-.9-14.2-3.4-3.3-1.2-5.4-.2-7.5 1.2-2 1.3-3.7 3.5-3.7 7zm0 0"/></svg>