<svg id="Слой_1" xmlns="http://www.w3.org/2000/svg" viewBox="0 0 60.1 54.4"><style>.st0{fill:#FFFFFF;}</style><path class="st0" d="M35.7 10.8c.9-.4 1.8-.8 2.8-1.2 1-.4 2-.7 2.9-1 1-.3 2-.5 3-.8 1-.2 2-.4 3.1-.6 1-.2 2-.3 3-.4 1-.1 2-.2 3-.2.8 0 1.6-.1 2.4-.1.6 0 1.2-.5 1.4-1.1.2-.7-.2-1.4-.9-1.7-.5-.2-1.2 0-1.7.1-.9.1-1.8.3-2.6.5.1 0 .1 0 0 0-.3.1-.2 0-.1 0-1 .2-2 .4-2.9.6-1 .2-2 .5-3 .8-2 .6-3.9 1.3-5.8 2.1-1.3.6-2.5 1.2-3.7 1.9-.6.3-1.1.7-1.7 1.1l-1.2.9h.1c.5-.2 1.2-.5 1.9-.9zm0 0"/><path class="st0" d="M33.6 10.4c.8-.6 1.6-1.2 2.5-1.7 1.5-.9 3.1-1.7 4.6-2.5 1.9-.9 3.9-1.5 5.9-2.1 1.7-.5 3.5-.9 5.2-1.2.7-.2 1.2-.8 1.2-1.5S52.4 0 51.6 0c-.2 0-.5.1-.7.1-.4.1-.8.3-1.2.4-.9.3-1.9.7-2.8 1-2 .7-3.8 1.7-5.7 2.7-1.5.8-3 1.8-4.3 2.8-1.1.8-2.2 1.7-3.2 2.6L32.3 11c-.4.4-.7.8-1 1.2l.2-.2c.7-.5 1.4-1.1 2.1-1.6zm0 0M24.5 10.6c-.9-.5-1.7-1-2.6-1.5-.9-.5-1.9-1-2.8-1.4-.9-.4-1.9-.8-2.9-1.1-1-.3-2-.7-3-.9-1-.3-2-.5-3-.8-1.8-.4-3.7-.7-5.6-1-.3-.1-.6-.1-1 0-.4.2-.7.5-.8.9-.3.9.4 1.8 1.3 1.9.7 0 1.4.1 2.1.1 1 0 2 .1 3 .2s2.1.2 3.1.4 2 .3 3 .5c2 .4 4.1 1 6 1.7.9.3 1.9.7 2.8 1.1.8.4 1.6.8 2.3 1.3h.1c-.6-.5-1.3-1-2-1.4zm0 0"/><path class="st0" d="M8.2 2.8c1.7.3 3.3.6 4.9 1.1 2 .6 3.9 1.3 5.9 2.1 1 .4 1.9.9 2.8 1.4.6.3 1.3.7 1.9 1.1 1.7 1 3.3 2.2 4.7 3.5.1.1.2.2.3.4-.5-.7-1.1-1.3-1.7-1.9-.7-.7-1.5-1.4-2.2-2.1-1.3-1.1-2.7-2.1-4.1-3-1.8-1.1-3.7-2.1-5.6-3-1-.4-1.9-.8-2.9-1.2L9.5.3c-.3-.1-.7-.3-1-.3-.5 0-.9.2-1.2.6-.6.9-.1 2 .9 2.2zm0 0M58.7 9h-1.8c-7.6 0-15.3 1.5-20.2 2.8v41.3c4.8-2 13.3-5.2 22.2-6.6.7-.1 1.2-.7 1.2-1.4V10.5c0-.8-.6-1.4-1.4-1.5zm0 0"/><path class="st0" d="M34.3 11.9c-1.5.7-2.9 1-4.2 1-1.3 0-2.7-.3-4.2-1l-.3-.1v41.3c.1.2 1.1 1.3 4.5 1.3s4.4-1.1 4.5-1.3V11.8l-.3.1zm0 0M1.4 9c-.8.1-1.4.7-1.4 1.5v34.6c0 .7.5 1.3 1.2 1.4 8.9 1.4 17.4 4.5 22.2 6.6V40.2 11.8C18.5 10.6 10.8 9 3.2 9H1.4zm0 0"/></svg>