<svg id="Слой_1" xmlns="http://www.w3.org/2000/svg" viewBox="0 0 71.9 45.9"><style>.st0{fill:#FFFFFF;}</style><path class="st0" d="M64.1 26.2c-.6 1.6-1.3 3.1-2.2 4.7-4.3 7.5-11.7 12.1-17.3 14.7 1.2.2 2.6.3 3.9.3 2.9 0 6-.4 8.9-1.7 9.9-4.2 14.5-15.9 14.5-15.9s-3.3-1.4-7.8-2.1zm0 0M9.9 30.8c-.9-1.5-1.6-3.1-2.2-4.7-4.5.8-7.7 2.2-7.7 2.2S4.5 40 14.5 44.2c2.9 1.2 6 1.7 8.9 1.7 1.4 0 2.7-.1 3.9-.3-5.6-2.6-13-7.2-17.4-14.8zm0 0M45.5 39.6c4.3-2.4 9.1-6 12.1-11.2C64.3 16.9 60 2 60 2s-6.2 1.6-12.5 5.7c2 4 3.6 8.9 3.6 14.1 0 7-2.8 13.2-5.6 17.8zm0 0M26.4 39.6c-2.9-4.5-5.6-10.8-5.6-17.7 0-5.3 1.6-10.1 3.6-14.1C18.2 3.5 11.9 2 11.9 2s-4.3 14.9 2.4 26.3c3 5.3 7.8 8.9 12.1 11.3zm0 0M36 0S25.8 9.8 25.8 21.8C25.8 33.9 36 43.7 36 43.7s10.2-9.8 10.2-21.8C46.1 9.8 36 0 36 0zm0 0"/></svg>