<svg id="Слой_1" xmlns="http://www.w3.org/2000/svg" viewBox="0 0 65.5 65.3"><style>.st0{fill:#FFFFFF;}</style><path class="st0" d="M12.3 32.5c0-.8 0-1.5.1-2.3L.6 26.4c-.4 2-.6 4-.6 6.1 0 9.4 4 17.9 10.3 23.9l7.3-10.1c-3.3-3.6-5.3-8.5-5.3-13.8zm40.9 0c0 5.3-2 10.2-5.4 13.8l7.3 10.1c6.4-6 10.3-14.5 10.3-23.9 0-2.1-.2-4.2-.6-6.1L53 30.2c.2.8.2 1.5.2 2.3zM36.8 12.4c5.9 1.2 10.8 4.9 13.7 10l11.8-3.8C57.7 8.6 48.2 1.4 36.8 0v12.4zm-21.9 10c2.9-5.1 7.8-8.8 13.7-10V0C17.3 1.4 7.8 8.6 3.1 18.6l11.8 3.8zm26.3 28.7c-2.6 1.2-5.5 1.8-8.5 1.8s-5.9-.7-8.5-1.8L17 61.2c4.7 2.6 10.1 4.1 15.8 4.1 5.7 0 11.1-1.5 15.8-4.1l-7.4-10.1zm0 0"/></svg>