<svg id="Слой_1" xmlns="http://www.w3.org/2000/svg" viewBox="0 0 50.9 62.2"><style>.st0{fill:#FFFFFF;}</style><path class="st0" d="M47.5 7h-1.8v44.7c0 3-2.4 5.4-5.4 5.4H7.2v1.7c0 1.9 1.5 3.4 3.4 3.4h36.8c1.9 0 3.4-1.5 3.4-3.4V10.5c.1-1.9-1.4-3.5-3.3-3.5zm0 0"/><path class="st0" d="M21.8 55.1h18.4c1.9 0 3.4-1.5 3.4-3.4V3.4c0-1.9-1.5-3.4-3.4-3.4H15.7v10.9c0 2.7-2.2 4.8-4.8 4.8H0v36c0 1.9 1.5 3.4 3.4 3.4h18.4zm.7-11.6h-12c-.9 0-1.6-.7-1.6-1.6s.7-1.6 1.6-1.6h12c.9 0 1.6.7 1.6 1.6s-.7 1.6-1.6 1.6zm12.1-8.3h-24c-.9 0-1.6-.7-1.6-1.6 0-.9.7-1.6 1.6-1.6h24c.9 0 1.6.7 1.6 1.6 0 .9-.8 1.6-1.6 1.6zM10.5 23.1h24c.9 0 1.6.7 1.6 1.6s-.7 1.6-1.6 1.6h-24c-.9 0-1.6-.7-1.6-1.6s.7-1.6 1.6-1.6zm0 0"/><path class="st0" d="M1.5 13.8h9.4c1.6 0 2.8-1.3 2.9-2.9V1.5c0-.9-.7-1.4-1.5-1.4-.4 0-.7.1-1 .4L.5 11.3c-.9.9-.3 2.5 1 2.5zm0 0"/></svg>