<svg id="Слой_1" xmlns="http://www.w3.org/2000/svg" viewBox="0 0 52.8 48.9"><style>.st0{fill:#15253D;}</style><path class="st0" d="M31 30.3c-.3-.5-.9-.7-1.4-.5-1 .4-2.1.7-3.2.7s-2.2-.2-3.2-.7c-.5-.2-1.1 0-1.4.5l-7.9 13.8c-.3.6-.1 1.3.5 1.6 1.9 1 6.4 2.9 12.1 2.9h.1c5.6 0 10.1-2 12.1-2.9.6-.3.8-1 .5-1.6L31 30.3zm0 0M18.2 21.4c.3-2.3 1.5-4.3 3.2-5.6.5-.3.6-1 .3-1.5L13.7.6c-.3-.6-1-.7-1.6-.4-1.8 1.2-5.7 4.1-8.5 9v.2C.7 14.2.1 19.1 0 21.2c0 .6.5 1.2 1.1 1.2H17c.6 0 1.1-.4 1.2-1zm0 0M49.1 9.3s0-.1 0 0c0-.1 0-.1-.1-.1-2.8-4.9-6.7-7.8-8.5-9-.5-.4-1.2-.2-1.5.4l-8 13.7c-.3.5-.2 1.1.3 1.5 1.7 1.3 2.9 3.4 3.2 5.6.1.6.5 1 1.1 1h15.9c.6 0 1.2-.5 1.1-1.2-.1-2.1-.7-7-3.5-11.9zm0 0M20.8 22.4c0 2 1.1 3.7 2.7 4.7.8.5 1.8.7 2.8.7 1 0 2-.3 2.8-.7 1.6-.9 2.7-2.7 2.7-4.7s-1.1-3.8-2.7-4.8c-.8-.5-1.7-.7-2.7-.7-1 0-1.9.3-2.7.7-1.8.9-2.9 2.7-2.9 4.8 0-.1 0-.1 0 0zm0 0"/></svg>