<svg id="Слой_1" xmlns="http://www.w3.org/2000/svg" viewBox="0 0 47.5 47.6"><style>.st0{fill:#15253D;}</style><path class="st0" d="M17.7 0h29.7v11.9H17.7zM17.7 17.8h29.7v11.9H17.7zM17.7 35.7h29.7v11.9H17.7zM5.3 11c-.5 0-.9-.2-1.2-.5L.3 5.9c-.5-.6-.5-1.6.2-2.1s1.6-.5 2.1.2l2.7 3L10.2.8c.5-.6 1.5-.7 2.1-.2.6.5.7 1.4.2 2.1l-6.1 7.6c-.2.5-.7.7-1.1.7zM5.3 28.8c-.5 0-.9-.2-1.2-.5L.3 23.7c-.5-.6-.5-1.6.2-2.1.6-.5 1.6-.5 2.1.2l2.6 3.1 4.9-6.2c.5-.6 1.5-.7 2.1-.2.6.5.7 1.4.2 2.1l-6.1 7.6c-.1.4-.6.6-1 .6zM5.3 47.6c-.5 0-.9-.2-1.2-.5L.3 42.5c-.5-.6-.5-1.6.2-2.1.6-.5 1.6-.5 2.1.2l2.6 3.1 4.9-6.2c.5-.6 1.5-.7 2.1-.2.6.5.7 1.4.2 2.1L6.3 47c-.1.4-.6.6-1 .6z"/></svg>