<svg id="Слой_1" xmlns="http://www.w3.org/2000/svg" viewBox="0 0 274.9 31.8"><style>.st0{fill:#01203B;} .st1{fill:#BD232C;}</style><path class="st0" d="M48.1 8.1c1.3 0 2.7.2 3.9 1.2 1.3 1.1 1.4 2.6 1.4 3.6 0 1.8-.7 2.9-1.3 3.5-1.2 1.2-2.7 1.3-3.7 1.3h-2.1v5.1H43V8.1h5.1zm-1.7 6.8h1.2c.5 0 1.3 0 1.8-.5.3-.3.5-.8.5-1.5 0-.6-.2-1.1-.5-1.4-.5-.5-1.2-.6-1.9-.6h-1.1v4zM63.9 11H59v2.8h4.7v2.9H59V20h4.9v2.9h-8.3V8.1h8.3V11zM71.8 11v11.8h-3.4V11h-3.2V8.1H75V11h-3.2zM87 8.1c1.3 0 2.7.2 3.9 1.2 1.3 1.1 1.4 2.6 1.4 3.6 0 1.8-.7 2.9-1.3 3.5-1.2 1.2-2.7 1.3-3.7 1.3h-2.1v5.1h-3.4V8.1H87zm-1.8 6.8h1.2c.5 0 1.3 0 1.8-.5.3-.3.5-.8.5-1.5 0-.6-.2-1.1-.5-1.4-.5-.5-1.2-.6-1.9-.6h-1.1v4zM107.9 9.9c1.4 1.3 2.3 3.3 2.3 5.5 0 2-.7 4-2.3 5.5-1.4 1.3-3.2 2.2-5.7 2.2-2.8 0-4.6-1.1-5.7-2.2-1.4-1.3-2.3-3.3-2.3-5.5 0-2.1.9-4.2 2.3-5.6 1-1 2.8-2.2 5.7-2.2 2.3.2 4.2.9 5.7 2.3zM99 12.1c-.6.6-1.3 1.7-1.3 3.3 0 1.3.4 2.4 1.3 3.3.9.9 2 1.2 3.1 1.2 1.5 0 2.6-.5 3.3-1.3.6-.6 1.3-1.6 1.3-3.3 0-1.5-.6-2.6-1.3-3.3-.7-.7-1.9-1.3-3.2-1.3-1.3.2-2.4.7-3.2 1.4zM116.2 8.1v14.7h-3.4V8.1h3.4zM127 11.7c-1.1-1-2-1.1-2.5-1.1s-1 .1-1.4.5c-.2.2-.4.6-.4.9 0 .4.1.6.3.8.4.3.9.5 1.8.8l1.1.4c.6.2 1.4.6 2 1.1.9.8 1.1 1.9 1.1 2.7 0 1.5-.5 2.8-1.3 3.6-1.3 1.4-3.2 1.5-4.2 1.5-1.1 0-2-.2-2.9-.6-.7-.4-1.6-1.1-2.2-1.6l1.8-2.4c.4.4 1 .9 1.4 1.1.6.4 1.2.5 1.8.5.4 0 1.1-.1 1.5-.5.3-.2.5-.6.5-1.2 0-.5-.2-.8-.5-1.1-.4-.3-1.3-.7-1.7-.8l-1.2-.4c-.7-.2-1.5-.5-2-1.2-.8-.8-.9-1.8-.9-2.6 0-1.3.4-2.4 1.3-3.3 1-1.1 2.3-1.3 3.6-1.3 1 0 2.6.2 4.4 1.5l-1.4 2.7zM144.6 9.9c1.4 1.3 2.3 3.3 2.3 5.5 0 2-.7 4-2.3 5.5-1.4 1.3-3.2 2.2-5.7 2.2-2.8 0-4.6-1.1-5.7-2.2-1.4-1.3-2.3-3.3-2.3-5.5 0-2.1.9-4.2 2.3-5.6 1-1 2.8-2.2 5.7-2.2 2.3.2 4.2.9 5.7 2.3zm-9 2.2c-.6.6-1.3 1.7-1.3 3.3 0 1.3.4 2.4 1.3 3.3.9.9 2 1.2 3.1 1.2 1.5 0 2.6-.5 3.3-1.3.6-.6 1.3-1.6 1.3-3.3 0-1.5-.6-2.6-1.3-3.3-.7-.7-1.9-1.3-3.2-1.3-1.2.2-2.4.7-3.2 1.4zM149.4 22.8V8.1h2.9l8 9.5V8.1h3.4v14.7h-2.9l-8-9.5v9.5h-3.4z"/><path class="st1" d="M175.4 13.7h5.9V8.1h3.4v14.7h-3.4v-6.2h-5.9v6.2H172V8.1h3.4v5.6zM196.1 11h-4.9v2.8h4.7v2.9h-4.7V20h4.9v2.9h-8.3V8.1h8.3V11zM202.3 8.1v11.8h4.6v2.9H199V8.1h3.3zM213.9 8.1c1.3 0 2.7.2 3.9 1.2 1.3 1.1 1.4 2.6 1.4 3.6 0 1.8-.7 2.9-1.3 3.5-1.2 1.2-2.7 1.3-3.7 1.3h-2.1v5.1h-3.4V8.1h5.2zm-1.8 6.8h1.2c.5 0 1.3 0 1.8-.5.3-.3.5-.8.5-1.5 0-.6-.2-1.1-.5-1.4-.5-.5-1.2-.6-1.9-.6h-1.1v4zM224.7 8.1v11.8h4.6v2.9h-7.9V8.1h3.3zM234.6 8.1v14.7h-3.4V8.1h3.4zM237.9 22.8V8.1h2.9l8 9.5V8.1h3.4v14.7h-2.9l-8-9.5v9.5h-3.4zM263.7 11h-4.9v2.8h4.7v2.9h-4.7V20h4.9v2.9h-8.3V8.1h8.3V11zM272.9 14.4c-.8.7-1.8 1.3-3.1 1.3s-2.4-.5-3.1-1.3c-.8-.8-1.3-2-1.3-3.2 0-1.2.5-2.4 1.3-3.2.8-.7 1.8-1.3 3.1-1.3s2.4.5 3.1 1.3c.8.8 1.3 2 1.3 3.2 0 1.2-.5 2.3-1.3 3.2zm-5.6-5.9c-.6.6-1.1 1.6-1.1 2.7s.5 2.1 1.1 2.7c.6.6 1.6 1 2.5 1s1.8-.4 2.5-1c.6-.6 1.1-1.6 1.1-2.7 0-1-.5-2.1-1.1-2.7-.6-.6-1.6-1-2.5-1s-1.9.4-2.5 1zm2.3.2c.4 0 1.1 0 1.5.5.2.2.4.6.4 1.1 0 .4-.2.7-.4 1-.2.3-.5.3-.7.4l1.4 2h-1.7l-1-1.6v1.6h-1.4v-5h1.9zm-.4 2.1h.2c.2 0 .4 0 .6-.1.2-.1.2-.3.2-.5 0-.1 0-.3-.2-.4-.2-.1-.5-.1-.7-.1h-.2v1.1z"/><g><path class="st0" d="M6.5 15.7c1.5 2 1.6 4.5.1 5.6-1.5 1.1-3.9.5-5.4-1.5-1.5-2-1.6-4.5-.1-5.6 1.4-1.1 3.8-.5 5.4 1.5zM11.3 0C9.6.6 8.8 3 9.7 5.4c.8 2.4 2.9 3.8 4.7 3.1 1.7-.6 2.5-3 1.6-5.4-1.2-3-4.3-3.2-4.7-3.1zm8 4.5c-1.6 1.1-1.8 3.4-.2 5.7 1.6 2.3 3.6 2.5 5.1 1.4 1.5-1.1 2.1-3 .5-5.3-2-3-5-2.1-5.4-1.8zm-16.2.3c-1.5 1-1.6 3.5-.2 5.5 1.4 2.1 3.7 2.9 5.2 1.9s1.6-3.5.2-5.5c-1.4-2-3.7-2.9-5.2-1.9zm7.4 11.8c0 1.8-.2 3.7-1 6.5-.8 2.9-.9 4.5.2 6.1 1.1 1.6 3.8 3.7 6.4 1.9 2.6-1.8 3.5-3.2 5.6-4.6 2.1-1.4 4-1.5 6.6-3.3 2.6-1.8 2-5 1-6.6-1.1-1.6-2.1-2.2-5.5-2.6-2.1-.3-3.9-.5-7.4-1.7-1.7-.6-2.8-.1-3.9.6-1.1.8-2 1.9-2 3.7zm0 0"/></g></svg>